<svg xmlns="http://www.w3.org/2000/svg" xmlns:xlink="http://www.w3.org/1999/xlink" width="700" height="350"><style><![CDATA[.B{fill:#658ca8}]]></style><use xlink:href="#W" fill="#304150"/><defs><path d="M451.72 237.26c-17.422-8.7-50.087-8.8-51.47-8.8a7.5 7.5 0 1 0 0 15c8.43.001 32.902 1.3 44.76 7.228a7.46 7.46 0 0 0 3.348.793c2.75 0 5.4-1.52 6.714-4.147a7.5 7.5 0 0 0-3.354-10.063zm37.392 106.78l-30.975-8.85c-1.337-.382-2.27-1.62-2.27-3v-10.34c2.52-1.746 4.924-3.7 7.17-5.88 10.9-10.568 16.887-24.743 16.887-39.915v-14.267l2.995-6a47.85 47.85 0 0 0 5.024-21.286v-38.65a7.5 7.5 0 0 0-7.5-7.5H408.27c-26.244 0-47.596 21.352-47.596 47.596v.447a39.78 39.78 0 0 0 4.178 17.699l3.84 7.682v12.25c0 19.414 9.567 36.833 24.058 47.315l.002 10.836c0 1.67 0 2.363-6.193 4.133l-15.114 4.318-43.72-15.898a7.49 7.49 0 0 0-2.044-5.742L311.7 304.3v-24.64c1.477-1.217 2.933-2.467 4.344-3.8a88.03 88.03 0 0 0 27.733-63.991V192.21c5.322-11.58 8.02-23.836 8.02-36.457v-80.2a7.5 7.5 0 0 0-7.5-7.5h-112.27c-39.5 0-71.653 32.144-71.653 71.653v16.04c0 12.62 2.697 24.876 8.02 36.457v16.93c0 28.036 12.466 53.294 32.077 69.946v25.22L186.5 319a7.49 7.49 0 0 0-2.044 5.742l-46.145 16.78a39.33 39.33 0 0 0-9.272 4.858l-7.246-3.623c21.57-9.4 28.403-22.594 28.73-23.25a7.5 7.5 0 0 0 0-6.708c-5.407-10.814-6.062-30.635-6.588-46.56l-.658-14.77c-2.557-35.974-29.905-63.103-63.615-63.103s-61.06 27.128-63.615 63.103c-.317 4.46-.483 9.47-.658 14.773-.526 15.925-1.182 35.744-6.588 46.558a7.5 7.5 0 0 0 0 6.708c.328.656 7.147 13.834 28.76 23.234l-20.127 10.063A31.39 31.39 0 0 0 0 381.02v55.4a7.5 7.5 0 1 0 15 0v-55.4a16.44 16.44 0 0 1 9.152-14.8l25.063-12.53 8.718 8.285c6.096 5.793 13.916 8.688 21.74 8.688s15.645-2.897 21.74-8.688l8.717-8.284 8.172 4.086c-3.848 6.157-6.032 13.377-6.032 20.94v57.725a7.5 7.5 0 1 0 15 0v-57.725c0-10.296 6.5-19.578 16.178-23.097l48.652-17.7 20.253 30.38a15.46 15.46 0 0 0 11.383 6.835 15.77 15.77 0 0 0 1.547.076c4.098 0 8.023-1.613 10.957-4.546l12.356-12.356v78.124a7.5 7.5 0 1 0 15 0V358.32l12.356 12.356a15.45 15.45 0 0 0 10.957 4.547 15.75 15.75 0 0 0 1.546-.076 15.46 15.46 0 0 0 11.384-6.835l20.254-30.38 48.65 17.7c9.676 3.52 16.178 12.8 16.178 23.097v57.725a7.5 7.5 0 1 0 15 0v-57.725c0-10.428-4.143-20.208-11.093-27.44l1.853-.53c1.87-.534 4.42-1.265 6.98-2.52l19.15 19.15v69.066a7.5 7.5 0 1 0 15 0v-69.066l19.016-19.016c1 .514 2.073.948 3.2 1.267l30.976 8.85c7.07 2.02 12 8.567 12 15.92v62.044a7.5 7.5 0 1 0 15 0V374.4c0-14.018-9.412-26.497-22.888-30.348zM48.115 330.794c-14.03-5.048-21.066-11.778-24.07-15.453 2.048-5.354 3.376-11.486 4.275-17.96 4.136 9.917 11.063 18.383 19.795 24.423v9zm42.965 20.298c-6.397 6.078-16.418 6.077-22.813-.001l-6.975-6.628c1.177-2.205 1.824-4.705 1.824-7.324v-7.994c5.232 1.635 10.794 2.517 16.558 2.517 5.757 0 11.316-.886 16.557-2.512v7.988a15.52 15.52 0 0 0 1.824 7.327l-6.974 6.627zm-11.404-34.43c-22.396 0-40.615-18.22-40.615-40.615a7.5 7.5 0 0 0-7.5-7.5c-.42 0-.83.043-1.23.1l.065-1.93.625-14.206c.958-13.476 6.343-25.894 15.163-34.968 8.9-9.156 20.793-14.198 33.5-14.198s24.6 5.042 33.5 14.198c8.82 9.074 14.205 21.492 15.163 34.968.296 4.177.458 9.047.628 14.203l.045 1.338c-8.16-12.572-20.762-21.837-37.045-27.07-15.043-4.833-27.98-4.534-28.527-4.52a7.5 7.5 0 0 0-5.191 2.291l-13.532 14.034a7.5 7.5 0 0 0 .193 10.605c2.982 2.875 7.73 2.788 10.605-.193l11.26-11.677c9.697.474 40.894 4.102 53.027 30.82-3.053 19.688-19.975 34.3-40.115 34.3zm31.553 14.157v-8.945c8.725-6.007 15.662-14.457 19.8-24.45.9 6.458 2.226 12.576 4.27 17.918-2.987 3.64-10.057 10.43-24.072 15.476zm72.174-121.674v-18.608a7.5 7.5 0 0 0-.746-3.261c-4.826-9.994-7.273-20.598-7.273-31.518V139.72c0-31.24 25.415-56.653 56.653-56.653h104.77v72.692c0 10.92-2.447 21.524-7.273 31.518a7.5 7.5 0 0 0-.746 3.261v21.355c0 20.3-8.165 39.15-23 53.047-1.85 1.734-3.772 3.36-5.758 4.875-.044.03-.086.063-.13.094-13.9 10.545-30.9 15.67-48.667 14.52-38.04-2.463-67.84-35.53-67.84-75.283zm42.23 150.9c-.052.052-.173.175-.418.15a.47.47 0 0 1-.38-.23L201.5 324.987l7.506-7.887 35.385 24.187-18.767 18.768zm30.463-28.943L215.48 303.35v-14c10.5 5.68 22.276 9.234 34.8 10.044a91.25 91.25 0 0 0 5.9.19c14.34 0 28.143-3.428 40.538-9.935v13.7l-40.615 27.762zm31.262 28.865c-.04.062-.137.205-.38.23-.245.03-.365-.098-.418-.15L267.8 341.3l35.385-24.188 7.507 7.887-23.326 34.988zm136.95-6.328l-17.02-17.02c.297-1.35.465-2.826.464-4.455l-.001-3.165c4.723 1.55 9.7 2.47 14.852 2.624a55.3 55.3 0 0 0 1.727.026 55.71 55.71 0 0 0 16.536-2.501v3.02a17.93 17.93 0 0 0 .542 4.371l-17.1 17.1zm28.283-48.454c-7.95 7.714-18.45 11.788-29.537 11.446-21.704-.65-39.36-19.768-39.36-42.613v-14.02a7.48 7.48 0 0 0-.792-3.354l-4.633-9.266c-1.697-3.395-2.594-7.195-2.594-11v-.447c0-17.974 14.623-32.596 32.596-32.596h64.673v31.15a32.77 32.77 0 0 1-3.441 14.578l-3.786 7.572a7.51 7.51 0 0 0-.792 3.354v16.038a40.29 40.29 0 0 1-12.333 29.15zm19.832 75.62a7.5 7.5 0 0 0-7.5 7.5v48.115a7.5 7.5 0 1 0 15 0v-48.115c0-4.14-3.358-7.5-7.5-7.5zm-432.846 9.914a7.5 7.5 0 0 0-7.5 7.5v38.2a7.5 7.5 0 1 0 15 0v-38.2c0-4.14-3.358-7.5-7.5-7.5zm277.955-232.253c-28.366-28.366-87.715-22.943-111.917-19.295-7.623 1.15-13.155 7.6-13.155 15.34v17.278a7.5 7.5 0 1 0 15 0v-17.28c0-.255.168-.473.392-.507 9.667-1.457 28.85-3.705 48.725-2.38 23.388 1.557 40.328 7.428 50.35 17.45a7.5 7.5 0 0 0 10.606-10.606zM167.884 396.853a7.5 7.5 0 0 0-7.5 7.5v32.077a7.5 7.5 0 1 0 15 0v-32.077c0-4.14-3.358-7.5-7.5-7.5zm176.422 0a7.5 7.5 0 0 0-7.5 7.5v32.077a7.5 7.5 0 1 0 15 0v-32.077c0-4.14-3.358-7.5-7.5-7.5z" transform="matrix(.125993 0 0 .125993 52.745754 120.745761)" id="A" class="B"/><path d="M328.844 368.733l-16.433-9.675a143.01 143.01 0 0 0 .006-33.316l16.425-9.67c9.02-5.42 12.78-16.856 8.744-26.603l-11.772-28.42c-4.037-9.744-14.777-15.175-24.993-12.63l-18.455 4.776c-6.9-8.732-14.82-16.65-23.563-23.554l4.778-18.46c2.545-10.2-2.885-20.955-12.63-24.992l-28.418-11.77c-9.744-4.038-21.183-.28-26.605 8.74l-9.674 16.433a143.12 143.12 0 0 0-33.316-.007l-9.67-16.426c-5.424-9.02-16.86-12.778-26.605-8.74l-28.418 11.77c-9.742 4.036-15.174 14.78-12.63 24.992l4.776 18.455a143.02 143.02 0 0 0-23.553 23.563l-18.463-4.78c-10.214-2.547-20.956 2.888-24.993 12.63l-11.77 28.417c-4.035 9.745-.276 21.182 8.742 26.602l16.433 9.675c-1.298 11.066-1.3 22.262-.006 33.316l-16.43 9.672c-9.018 5.42-12.777 16.857-8.74 26.603l11.772 28.418c4.036 9.743 14.775 15.176 24.993 12.63l18.453-4.776c6.9 8.73 14.82 16.647 23.563 23.553l-4.778 18.46c-2.545 10.2 2.885 20.956 12.63 24.992l28.42 11.772a21.24 21.24 0 0 0 8.137 1.615c7.362 0 14.514-3.78 18.47-10.355l9.674-16.432c11.065 1.297 22.264 1.3 33.316.006l9.67 16.427c5.422 9.02 16.858 12.777 26.605 8.74l28.418-11.77c9.742-4.036 15.174-14.78 12.63-24.992l-4.776-18.455c8.73-6.9 16.648-14.82 23.554-23.562l18.46 4.777c10.2 2.547 20.956-2.884 24.993-12.63l11.77-28.42c4.034-9.745.275-21.182-8.743-26.602zm-23.728 45.1l-17.703-4.602c-8.376-2.253-17.215.692-22.52 7.507a120.15 120.15 0 0 1-20.968 20.973c-6.807 5.302-9.748 14.138-7.493 22.5l4.6 17.696-26.122 10.82-9.26-15.765c-4.327-7.514-12.655-11.678-21.216-10.618-9.83 1.22-19.8 1.22-29.654-.005-8.585-1.066-16.906 3.098-21.232 10.614l-9.263 15.773-26.122-10.82 4.603-17.7c2.255-8.375-.692-17.215-7.507-22.52a120.17 120.17 0 0 1-20.973-20.965c-5.3-6.8-14.136-9.75-22.5-7.495l-17.695 4.6-10.82-26.12 15.765-9.26c7.515-4.327 11.683-12.653 10.62-21.215-1.223-9.832-1.22-19.8.003-29.655 1.068-8.57-3.097-16.905-10.616-21.233l-15.772-9.265 10.82-26.12 17.702 4.602c8.372 2.256 17.212-.692 22.52-7.507a120.13 120.13 0 0 1 20.965-20.972c6.808-5.3 9.75-14.138 7.494-22.512l-4.6-17.694 26.122-10.82 9.26 15.765c4.328 7.515 12.663 11.7 21.216 10.618 9.827-1.223 19.804-1.223 29.657.005 8.575 1.068 16.905-3.102 21.23-10.617l9.262-15.77 26.122 10.82-4.603 17.703c-2.255 8.374.692 17.214 7.507 22.52 7.83 6.095 14.885 13.15 20.973 20.965 5.3 6.807 14.133 9.748 22.5 7.494l17.694-4.6 10.82 26.12-15.765 9.26c-7.515 4.327-11.684 12.654-10.62 21.216 1.223 9.827 1.22 19.806-.005 29.657-1.066 8.57 3.1 16.904 10.617 21.23l15.772 9.263-10.817 26.124zM241.762 312.5c-16.48-39.8-62.257-58.753-102.052-42.272C99.922 286.72 80.958 332.5 97.44 372.3c7.983 19.276 22.997 34.287 42.27 42.272 9.637 4 19.763 5.987 29.9 5.987s20.252-1.996 29.9-5.987c39.788-16.482 58.75-62.26 42.27-102.05zm-51.042 80.877c-13.618 5.64-28.617 5.64-42.24 0s-24.225-16.25-29.867-29.868c-11.647-28.114 1.753-60.462 29.868-72.107a54.88 54.88 0 0 1 21.047-4.202c21.667 0 42.265 12.84 51.06 34.07 11.645 28.114-1.755 60.46-29.87 72.107zm305.833-292.45l-12.1-1.713a106.66 106.66 0 0 0-8.214-19.819l7.357-9.78c5.295-7.16 4.53-17.317-1.78-23.623l-15.808-15.806c-6.3-6.3-16.465-7.075-23.624-1.778l-9.78 7.355c-6.313-3.398-12.96-6.152-19.82-8.215l-1.712-12.1C409.746 6.642 402.024 0 393.102 0h-22.356c-8.922 0-16.644 6.642-17.96 15.447l-1.712 12.1c-6.86 2.063-13.507 4.817-19.82 8.215l-9.778-7.355c-7.16-5.297-17.317-4.532-23.624 1.777L282.046 46c-6.3 6.308-7.077 16.465-1.78 23.627l7.354 9.778c-3.396 6.313-6.15 12.96-8.214 19.82l-12.1 1.713c-8.807 1.318-15.45 9.04-15.45 17.962v22.355c0 8.922 6.64 16.644 15.447 17.962l12.1 1.713c2.063 6.858 4.817 13.505 8.214 19.82l-7.357 9.78c-5.294 7.16-4.53 17.317 1.78 23.622l15.808 15.808c6.308 6.3 16.464 7.074 23.624 1.778l9.778-7.354c6.315 3.398 12.963 6.152 19.82 8.214l1.712 12.1c1.318 8.806 9.04 15.448 17.962 15.448H393.1c8.922 0 16.644-6.64 17.96-15.45l1.712-12.1c6.858-2.06 13.505-4.817 19.82-8.215l9.778 7.356c7.16 5.297 17.317 4.532 23.624-1.777l15.808-15.806c6.3-6.308 7.075-16.465 1.778-23.626l-7.354-9.777a106.75 106.75 0 0 0 8.214-19.819l12.1-1.713c8.807-1.318 15.45-9.04 15.45-17.962V118.9c-.001-8.923-6.642-16.645-15.448-17.963zm-6.325 37.206l-10.934 1.506c-7.273.95-13.227 6.1-15.165 13.15-1.857 6.74-4.552 13.242-8 19.328-3.6 6.353-3.054 14.215 1.42 20.032l6.67 8.8-11.404 11.405-8.802-6.67c-5.814-4.475-13.678-5.028-20.032-1.42a84.49 84.49 0 0 1-19.325 8c-7.042 1.94-12.204 7.894-13.15 15.165L390 238.373h-16.13l-1.506-10.93c-.95-7.274-6.1-13.228-13.15-15.168a84.75 84.75 0 0 1-19.327-8.009c-6.354-3.6-14.218-3.055-20.03 1.42l-8.803 6.67-11.404-11.405 6.67-8.803c4.47-5.815 5.027-13.677 1.417-20.03a85.02 85.02 0 0 1-8.01-19.327c-1.94-7.04-7.892-12.2-15.165-13.15l-10.935-1.507V122l10.934-1.506c7.273-.95 13.227-6.1 15.165-13.15a84.68 84.68 0 0 1 8.01-19.328c3.6-6.353 3.054-14.216-1.417-20.03l-6.67-8.8 11.404-11.405 8.8 6.668a18.11 18.11 0 0 0 20.034 1.422 84.82 84.82 0 0 1 19.325-8.01c7.042-1.94 12.204-7.894 13.15-15.165l1.507-10.934h16.13l1.505 10.93c.95 7.274 6.1 13.228 13.15 15.167 6.738 1.857 13.242 4.553 19.328 8 6.355 3.6 14.218 3.05 20.03-1.42l8.803-6.67 11.404 11.405-6.67 8.803c-4.47 5.814-5.027 13.676-1.42 20.03a84.85 84.85 0 0 1 8.009 19.328c1.94 7.04 7.892 12.2 15.165 13.15l10.935 1.507v16.128zM381.924 83.675c-25.585 0-46.4 20.815-46.4 46.4s20.815 46.402 46.4 46.402 46.4-20.815 46.4-46.402-20.815-46.4-46.4-46.4zm0 72.176c-14.2 0-25.775-11.563-25.775-25.776s11.563-25.775 25.775-25.775 25.774 11.563 25.775 25.775-11.563 25.776-25.775 25.776z" transform="matrix(.085626 -.008286 .008286 .085626 105.95837 21.201011)" id="B" class="B"/><g transform="matrix(.085804 0 0 .085804 312.034117 305.034117)" id="C"><path d="M512 256c0 15.485-1.38 30.647-4.012 45.37C486.578 421.115 381.9 512 256 512c-94.856 0-177.664-51.587-221.884-128.24-10.794-18.693-19.278-38.87-25.088-60.155C3.135 302.07 0 279.395 0 256 0 114.615 114.615 0 256 0c116.694 0 215.144 78.075 245.98 184.842C508.5 207.433 512 231.31 512 256z" class="B"/><path d="M130.173 178.24h-94.28L9.028 323.605a253.59 253.59 0 0 0 25.088 60.155h8.746l10.407-56.3h51.806c63.08 0 80.04-56.633 84.104-84.45 4.075-27.805-16.27-64.773-59.006-64.773zm13.678 69.464c-2.3 15.768-13.96 47.877-49.716 47.877H59.162l15.632-84.605h35.6c34.7 0 35.766 20.96 33.457 36.728zm358.13-62.862c-8.014-4.138-17.565-6.604-28.6-6.604H379.1L341.117 383.76h44.95l10.407-56.3h51.806c28.056 0 47-11.2 59.705-26.1C510.62 286.647 512 271.485 512 256c0-24.7-3.5-48.567-10.02-71.158zm-14.92 62.86c-2.3 15.768-13.96 47.877-49.727 47.877H402.37L418 210.975h35.6c34.7 0 35.766 20.96 33.457 36.728zM309.238 178.92H254.64l10.248-55.45h-44.766L182.14 328.984h44.766l21.843-118.186h28.6c19 0 31.88 4.07 29.165 21.705S288.2 328.14 288.2 328.14h45.444s17.635-86.818 20.348-111.237-19.67-37.983-44.765-37.983z" fill="#2f404f"/></g><path d="M349.657 18.343A8 8 0 0 0 344 16H120a56.064 56.064 0 0 0-56 56v368a56.064 56.064 0 0 0 56 56h272a56.064 56.064 0 0 0 56-56V120a8 8 0 0 0-2.343-5.657zM352 43.313L420.687 112H392a40.045 40.045 0 0 1-40-40zM120 32h216v40a56.064 56.064 0 0 0 56 56h40v224H80V72a40.045 40.045 0 0 1 40-40zm272 448H120a40.045 40.045 0 0 1-40-40v-72h352v72a40.045 40.045 0 0 1-40 40zm-224-96a8 8 0 0 0-8 8v24h-16v-24a8 8 0 1 0-16 0v64a8 8 0 1 0 16 0v-24h16v24a8 8 0 1 0 16 0v-64a8 8 0 0 0-8-8zm64 0h-32a8 8 0 0 0 0 16h8v56a8 8 0 0 0 16 0v-56h8a8 8 0 0 0 0-16zm81.838.214a8 8 0 0 0-8.993 4.208L288 422.1l-16.845-33.7A8 8 0 0 0 256 392v64a8 8 0 1 0 16 0v-30.1l8.845 17.7a8 8 0 0 0 14.31 0L304 425.9V456a8 8 0 1 0 16 0v-64a8 8 0 0 0-6.162-7.786zM376 448h-24v-56a8 8 0 0 0-16 0v64a8 8 0 0 0 8 8h32a8 8 0 0 0 0-16zM194.343 261.657a8 8 0 1 0 11.314-11.314L163.313 208l42.344-42.343a8 8 0 0 0-11.314-11.314l-48 48a8 8 0 0 0 0 11.314zm112 0a8 8 0 0 0 11.314 0l48-48a8 8 0 0 0 0-11.314l-48-48a8 8 0 1 0-11.314 11.314L348.687 208l-42.344 42.343a8 8 0 0 0 0 11.314zM229.47 287.59a7.991 7.991 0 0 0 10.119-5.059l48-144a8 8 0 1 0-15.178-5.06l-48 144a8 8 0 0 0 5.059 10.119z" transform="matrix(.143757 0 0 .143757 14.048342 251.410664)" id="D" class="B"/><g transform="matrix(.167598 0 0 .167598 89.707986 249.498127)" id="E" class="B"><path d="M349.657 18.343A8 8 0 0 0 344 16H120a56.064 56.064 0 0 0-56 56v368a56.064 56.064 0 0 0 56 56h272a56.063 56.063 0 0 0 56-56V120a8 8 0 0 0-2.343-5.657zM352 43.313L420.687 112H392a40.045 40.045 0 0 1-40-40zM120 32h216v40a56.063 56.063 0 0 0 56 56h40v224H80V72a40.045 40.045 0 0 1 40-40zm272 448H120a40.045 40.045 0 0 1-40-40v-72h352v72a40.045 40.045 0 0 1-40 40zm-136-80h16a8 8 0 0 0 0-16h-16a24 24 0 0 0 0 48 8 8 0 0 1 0 16h-16a8 8 0 0 0 0 16h16a24 24 0 0 0 0-48 8 8 0 0 1 0-16zm64 0h16a8 8 0 0 0 0-16h-16a24 24 0 0 0 0 48 8 8 0 0 1 0 16h-16a8 8 0 0 0 0 16h16a24 24 0 0 0 0-48 8 8 0 0 1 0-16zm-120 0a10.708 10.708 0 0 1 4.59 1.058 8 8 0 0 0 6.82-14.474A26.581 26.581 0 0 0 200 384c-17.645 0-32 17.944-32 40s14.355 40 32 40a26.581 26.581 0 0 0 11.41-2.584 8 8 0 1 0-6.82-14.474A10.708 10.708 0 0 1 200 448c-8.673 0-16-11-16-24s7.327-24 16-24z"/><circle cx="256" cy="200" r="8"/><circle cx="256" cy="232" r="8"/><path d="M152 224a8.009 8.009 0 0 1 8 8v32a24.027 24.027 0 0 0 24 24 8 8 0 0 0 0-16 8.009 8.009 0 0 1-8-8v-32a23.9 23.9 0 0 0-6.126-16A23.9 23.9 0 0 0 176 200v-32a8.009 8.009 0 0 1 8-8 8 8 0 0 0 0-16 24.027 24.027 0 0 0-24 24v32a8.009 8.009 0 0 1-8 8 8 8 0 0 0 0 16zm184 40a8.009 8.009 0 0 1-8 8 8 8 0 0 0 0 16 24.027 24.027 0 0 0 24-24v-32a8.009 8.009 0 0 1 8-8 8 8 0 0 0 0-16 8.009 8.009 0 0 1-8-8v-32a24.027 24.027 0 0 0-24-24 8 8 0 0 0 0 16 8.009 8.009 0 0 1 8 8v32a23.9 23.9 0 0 0 6.126 16A23.9 23.9 0 0 0 336 232z"/></g><g id="F"><g transform="matrix(.158587 0 0 .158587 46.542318 196.401787)" fill="#2f404f"><path d="M115.05 71.133V10.11h280.113l100.043 100.04v391.953H115.05V231.2"/><path d="M495.207 110.148H395.164V10.1zM229.043 90.984V211.14c0 11.02-8.934 19.953-19.957 19.953H29.96c-11.023 0-19.957-8.934-19.957-19.953V90.984c0-11.02 8.934-19.957 19.957-19.957h179.125c11.023 0 19.957 8.938 19.957 19.957zm0 0"/></g><g class="B"><path d="M505.2 109.715l-.016-.355a9.62 9.62 0 0 0-.152-1.219c-.004-.02-.004-.04-.012-.055-.086-.44-.207-.867-.352-1.28l-.1-.242a9.83 9.83 0 0 0-.5-1.137l-.043-.1c-.207-.387-.44-.754-.695-1.1l-.184-.242c-.27-.352-.55-.7-.86-1L402.238 2.93a9.99 9.99 0 0 0-1.012-.867l-.246-.187a10.5 10.5 0 0 0-1.105-.695l-.098-.047a10.34 10.34 0 0 0-1.125-.496l-.25-.1c-.414-.145-.836-.266-1.273-.352l-.074-.012c-.4-.074-.793-.12-1.2-.148l-.367-.02-.324-.016H115.05c-5.525.001-10.005 4.48-10.008 10.004V61.13h-74.3C13.793 61.13 0 74.918 0 91.87v118.6c0 16.953 13.793 30.742 30.742 30.742h74.3v260.793c.008 5.52 4.484 9.992 10.005 9.995h380.156c5.527 0 10.004-4.48 10.004-10.004v-391.95c.004-.113-.012-.223-.016-.332zm-100.023-75.56l65.883 65.887h-65.883zM125.055 491.992v-250.8h3.484c5.527 0 10.004-4.48 10.004-10.004s-4.477-10.004-10.004-10.004H30.742c-5.925-.01-10.725-4.81-10.734-10.734V91.87c.01-5.925 4.81-10.725 10.734-10.734H208.36c5.918 0 10.73 4.816 10.73 10.734v118.6c0 5.922-4.812 10.734-10.73 10.734-5.527 0-10.004 4.48-10.004 10.004s4.477 10.004 10.004 10.004h.2l.285-.004c16.723-.266 30.242-13.953 30.242-30.738V91.87c0-16.95-13.8-30.742-30.742-30.742H125.05v-41.12h260.1v90.04c0 5.523 4.477 10.004 10.004 10.004H485.2v371.94zm110.043-170.86H435.18c5.527 0 10.004-4.477 10.004-10.004s-4.477-10.004-10.004-10.004H235.098c-5.524.003-10 4.48-10.004 10.004s4.48 10.004 10.004 10.004zm0 0" transform="matrix(.158587 0 0 .158587 46.542318 196.401787)"/><path d="M198.777 361.258a9.97 9.97 0 0 0 7.074-2.934c3.904-3.908 3.904-10.24 0-14.148l-22.633-22.633L206.46 298.3c3.904-3.908 3.904-10.24 0-14.148s-10.24-3.904-14.148 0l-30.316 30.316c-3.904 3.908-3.904 10.24 0 14.148l29.707 29.707c1.953 1.957 4.516 2.934 7.074 2.934zm218.075 22.937c-3.908-3.904-10.24-3.904-14.148 0s-3.904 10.24 0 14.148l22.637 22.633-23.246 23.242c-3.904 3.908-3.904 10.24 0 14.148 1.957 1.953 4.516 2.93 7.074 2.93a9.97 9.97 0 0 0 7.074-2.93l30.316-30.316a10 10 0 0 0 0-14.148zm0 0" transform="matrix(.158587 0 0 .158587 46.542318 196.401787)"/><path d="M375.156 341.145h-140.06c-5.523 0-10.004 4.477-10.004 10.004s4.48 10 10.004 10.004h140.06c5.524-.003 10-4.48 10.004-10.004s-4.48-10.004-10.004-10.004zm0 40.015h-140.06c-5.524.003-10 4.48-10.004 10.004.003 5.524 4.48 10 10.004 10.004h140.06c5.524-.003 10-4.48 10.004-10.004-.003-5.524-4.48-10-10.004-10.004zm0 0" transform="matrix(.158587 0 0 .158587 46.542318 196.401787)"/><path d="M375.156 421.07H175.074c-5.527 0-10.004 4.48-10.004 10.004s4.477 10.004 10.004 10.004h200.082c5.524-.003 10-4.48 10.004-10.004-.003-5.524-4.48-10-10.004-10.004zM89.04 101.043c-5.527 0-10.004 4.48-10.004 10.004v60.184c0 5.43-4.418 9.848-9.848 9.848h-.316c-5.435-.01-9.837-4.413-9.844-9.848-.003-5.524-4.48-10-10.004-10.004s-10.005 4.48-10.008 10.004c0 16.46 13.395 29.855 29.855 29.855h.316c16.46 0 29.855-13.395 29.855-29.855v-60.184c-.003-5.524-4.48-10-10.004-10.004zm0 0" transform="matrix(.158587 0 0 .158587 46.542318 196.401787)"/><path d="M183.078 170.93c0-15.035-11.684-30.258-34.016-30.258-9.523 0-10.004-8.13-10.004-9.758s.48-9.758 10.004-9.758h13.094c.645 4.902 4.84 8.684 9.918 8.684 5.524-.003 10-4.48 10.004-10.004v-8.684c-.003-5.524-4.48-10-10.004-10.004h-23.012c-19.703 0-30.012 14.973-30.012 29.766s10.3 29.766 30.012 29.766c10.336 0 14.008 5.523 14.008 10.25s-3.672 10.254-14.008 10.254h-10.008c-.125-5.414-4.555-9.766-10-9.766-5.524.003-10 4.48-10.004 10.004v9.766c.003 5.524 4.48 10 10.004 10.004h20.008c22.332 0 34.016-15.223 34.016-30.262zm-21.93 66.914c.46.457.97.88 1.52 1.238a9.88 9.88 0 0 0 1.73.922 10.35 10.35 0 0 0 1.871.57 9.95 9.95 0 0 0 1.953.199 9.99 9.99 0 0 0 1.957-.2 10.71 10.71 0 0 0 1.87-.57 10.13 10.13 0 0 0 1.723-.922 9.67 9.67 0 0 0 1.52-1.238 10.42 10.42 0 0 0 1.25-1.523 10.37 10.37 0 0 0 .922-1.73 9.96 9.96 0 0 0 .57-1.871 10.02 10.02 0 0 0 .191-1.961 9.99 9.99 0 0 0-.191-1.949 10.05 10.05 0 0 0-.57-1.871 10.37 10.37 0 0 0-.922-1.73 10.55 10.55 0 0 0-1.25-1.52 9.5 9.5 0 0 0-1.52-1.242 10.11 10.11 0 0 0-1.723-.918 10.42 10.42 0 0 0-1.871-.57c-1.3-.262-2.62-.262-3.9 0a10.05 10.05 0 0 0-1.871.57c-.6.25-1.2.56-1.73.918a9.5 9.5 0 0 0-1.52 1.242 10.05 10.05 0 0 0-1.242 1.52 10.81 10.81 0 0 0-.918 1.73 10.05 10.05 0 0 0-.57 1.871c-.133.648-.203 1.3-.203 1.95a9.71 9.71 0 0 0 .203 1.96 9.96 9.96 0 0 0 .57 1.871c.25.602.56 1.184.918 1.73a9.89 9.89 0 0 0 1.242 1.523zm0 0" transform="matrix(.158587 0 0 .158587 46.542318 196.401787)"/></g></g><path d="M276.043 244.216c-24.575 0-38.74 24.087-38.74 53.862-.24 30.228 14.407 53.382 38.5 53.382 24.323 0 38.512-22.92 38.512-54.1-.001-29.066-13.7-53.153-38.27-53.153zm210.157-48.1h-13.164V132.6c0-.4-.064-.795-.116-1.2-.02-2.52-.824-4.997-2.55-6.96L364.656 3.677c-.03-.03-.064-.044-.085-.075-.63-.704-1.364-1.3-2.14-1.796-.23-.154-.462-.283-.704-.42a11.28 11.28 0 0 0-2.12-.893c-.2-.052-.377-.134-.576-.186-.8-.2-1.63-.308-2.467-.308H96.757c-11.864 0-21.5 9.65-21.5 21.502v174.613H62.093c-16.967 0-30.733 13.756-30.733 30.733V386.66c0 16.96 13.766 30.73 30.733 30.73h13.163v109.4c0 11.854 9.637 21.5 21.5 21.5h354.777c11.853 0 21.502-9.647 21.502-21.5V417.392H486.2c16.977 0 30.73-13.77 30.73-30.73V226.85c.001-16.977-13.752-30.733-30.73-30.733zM96.757 21.502H345.8v110.006a10.75 10.75 0 0 0 10.75 10.75h94.973v53.86H96.757V21.502zM353.033 376.96l-10.394 27.884c-22.666-6.62-41.565-13.48-62.828-22.445-3.527-1.418-7.317-2.132-11.094-2.362-35.9-2.352-69.45-28.82-69.45-80.778 0-47.7 30.236-83.623 77.7-83.623 48.675 0 75.35 36.854 75.35 80.317 0 36.142-16.766 61.638-37.785 71.1v.945c12.284 3.54 25.975 6.378 38.5 8.97zm-280.12-6.844l7.328-29.764c9.7 4.96 24.554 9.915 39.917 9.915 16.525 0 25.27-6.84 25.27-17.228 0-9.928-7.56-15.597-26.7-22.442C92.28 301.38 75.04 286.74 75.04 263.583c0-27.163 22.68-47.948 60.23-47.948 17.954 0 31.184 3.8 40.623 8.03l-8.02 29.06c-6.375-3.076-17.7-7.564-33.3-7.564-15.6 0-23.163 7.08-23.163 15.357 0 10.15 8.977 14.646 29.533 22.447 28.108 10.394 41.332 25.023 41.332 47.464 0 26.7-20.557 49.365-64.253 49.365-18.18-.01-36.124-4.735-45.1-9.68zm378.622 150.846H96.757v-103.57h354.777v103.57zm23.853-143.534h-99.455V218.23H412.1V347.2h63.297v30.227z" transform="matrix(.109263 -.046437 .046437 .109263 106.322264 91.776376)" id="G" class="B"/><path d="M35 0C23.85 0 14.43 2.588 11.215 6.475 4.67 8.077.884 10.775.146 13.5A.98.98 0 0 0 0 14v37a.94.94 0 0 0 .117.451C1.298 56.346 11.864 60 25 60c11.24 0 20.58-2.68 23.786-6.518 6.36-1.546 10.366-4.076 11.1-7A.99.99 0 0 0 60 46V9.5C60 4.895 51.238 0 35 0zm12.805 39.348c-.04.1-.09.198-.143.297a3.39 3.39 0 0 1-.231.369c-.066.093-.14.185-.22.277a5.42 5.42 0 0 1-.363.392c-.08.08-.17.157-.26.236-.164.143-.335.285-.526.426-.082.06-.17.12-.257.18-.226.156-.462.31-.72.463-.068.04-.14.08-.212.12a16.52 16.52 0 0 1-.945.497c-.043.02-.088.04-.132.06-.375.177-.767.35-1.186.52-.012.005-.024.01-.036.014-2.27.907-5.176 1.67-8.56 2.17-.017.002-.034.004-.05.007a55.03 55.03 0 0 1-2.026.259l-.346.032-1.847.167c-.288.02-.6.03-.883.05l-1.43.076A77.11 77.11 0 0 1 25 46a69.02 69.02 0 0 1-2.432-.044c-.486-.017-.955-.05-1.43-.076l-.883-.05c-.63-.046-1.242-.104-1.847-.167l-.346-.032c-.693-.076-1.368-.163-2.026-.26a.89.89 0 0 1-.051-.007c-3.385-.5-6.3-1.263-8.56-2.17-.012-.004-.024-.01-.036-.014a21.25 21.25 0 0 1-1.186-.519c-.043-.02-.09-.04-.132-.06a15.91 15.91 0 0 1-.945-.497l-.212-.12c-.26-.152-.495-.307-.72-.463l-.257-.18c-.19-.14-.362-.283-.526-.426-.09-.078-.18-.156-.26-.236a5.22 5.22 0 0 1-.363-.392c-.078-.092-.153-.184-.22-.277a3.73 3.73 0 0 1-.231-.369c-.054-.1-.102-.198-.143-.297-.05-.12-.088-.242-.116-.363C2.04 38.823 2 38.66 2 38.5c0-.113.013-.226.03-.338.025-.15.01-.302-.03-.445v-7.424c.028.026.063.05.092.077.218.192.44.383.7.567C6.55 33.786 14.082 36 25 36c10.872 0 18.386-2.196 22.17-5.028a10.18 10.18 0 0 0 .83-.678l.001-.001v7.424c-.042.143-.056.294-.03.445.018.112.03.225.03.338 0 .16-.04.323-.08.485-.03.12-.067.242-.116.363zM2.6 18.797c.3.236.624.47.975.696.073.047.155.093.23.14a17.11 17.11 0 0 0 .932.538l.367.193a20.64 20.64 0 0 0 1.151.542l.193.087c.47.2.967.39 1.485.573.143.05.293.1.44.15a32.87 32.87 0 0 0 1.279.401l.478.138c.585.162 1.19.316 1.823.458.087.02.18.036.27.055.56.122 1.14.235 1.735.34l.613.104a53.54 53.54 0 0 0 1.75.256l.457.062c.744.1 1.514.167 2.305.233l.596.042 1.942.114.727.03c.863.03 1.74.05 2.65.05s1.788-.02 2.65-.05l.727-.03 1.942-.114.596-.042c.79-.065 1.56-.143 2.305-.233l.457-.062a53.94 53.94 0 0 0 1.75-.256l.613-.104c.596-.106 1.176-.22 1.735-.34l.27-.055c.634-.142 1.238-.297 1.823-.458l.478-.138a32.87 32.87 0 0 0 1.279-.401l.44-.15c.518-.184 1.017-.374 1.485-.573.067-.028.127-.058.193-.087.403-.176.786-.356 1.15-.542l.367-.193a15.89 15.89 0 0 0 .932-.538l.23-.14c.35-.227.675-.46.975-.696.075-.06.142-.12.215-.18.13-.108.267-.215.387-.324v7.424c-.042.143-.056.294-.03.445.018.112.03.225.03.338 0 .16-.04.323-.08.485a2.46 2.46 0 0 1-.116.363c-.04.1-.09.198-.143.297a3.39 3.39 0 0 1-.231.369c-.066.093-.14.185-.22.277a5.42 5.42 0 0 1-.363.392c-.08.08-.17.157-.26.236-.164.143-.335.285-.526.426-.082.06-.17.12-.257.18-.226.156-.462.31-.72.463-.068.04-.14.08-.212.12a16.52 16.52 0 0 1-.945.497c-.043.02-.088.04-.132.06-.375.177-.767.35-1.186.52-.012.005-.024.01-.036.014-2.27.907-5.176 1.67-8.56 2.17-.017.002-.034.004-.05.007a55.03 55.03 0 0 1-2.026.259l-.346.032-1.847.167c-.288.02-.6.03-.883.05l-1.43.076A77.11 77.11 0 0 1 25 34a69.02 69.02 0 0 1-2.432-.044c-.486-.017-.955-.05-1.43-.076l-.883-.05c-.63-.046-1.242-.104-1.847-.167l-.346-.032c-.693-.076-1.368-.163-2.026-.26a.89.89 0 0 1-.051-.007c-3.385-.5-6.3-1.263-8.56-2.17-.012-.004-.024-.01-.036-.014a21.25 21.25 0 0 1-1.186-.519c-.043-.02-.09-.04-.132-.06a15.91 15.91 0 0 1-.945-.497l-.212-.12c-.26-.152-.495-.307-.72-.463l-.257-.18c-.19-.14-.362-.283-.526-.426-.09-.078-.18-.156-.26-.236a5.22 5.22 0 0 1-.363-.392c-.078-.092-.153-.184-.22-.277a3.73 3.73 0 0 1-.231-.369c-.054-.1-.102-.198-.143-.297-.05-.12-.088-.242-.116-.363C2.04 26.823 2 26.66 2 26.5c0-.113.013-.226.03-.338.025-.15.01-.302-.03-.445v-7.424c.12.11.257.216.387.324l.214.18zM50 39.1v-9.918l.126-.037 1.168-.346c2.974-.94 5.233-2.103 6.706-3.43V33.5c0 .116-.015.232-.035.35a2.33 2.33 0 0 1-.072.288c-.01.028-.015.056-.025.085-.036.105-.08.2-.133.315-.006.013-.013.026-.02.04-.828 1.615-3.465 3.202-7.27 4.38L50 39.1zm8-25.743V21.5c0 .116-.015.232-.035.35a2.33 2.33 0 0 1-.072.288c-.01.028-.015.056-.025.085-.036.105-.08.2-.133.315-.006.013-.013.026-.02.04-.828 1.615-3.465 3.202-7.27 4.38L50 27.1v-9.918c.084-.023.16-.05.244-.072l.677-.2.56-.174.667-.227.495-.174c.23-.085.452-.174.673-.262l.412-.164c.256-.108.5-.22.742-.332l.263-.12c.324-.156.635-.316.93-.48.03-.017.057-.035.088-.052a15.05 15.05 0 0 0 .751-.447c.084-.054.16-.11.24-.163.176-.117.35-.235.512-.356.09-.066.17-.134.253-.2.14-.112.282-.224.41-.338.026-.023.056-.043.08-.065zM35 2c13.555 0 23 3.952 23 7.5 0 .133-.014.266-.04.4-.008.044-.025.087-.036.13-.023.1-.045.18-.08.27-.02.052-.047.104-.07.156-.037.08-.073.162-.12.243-.03.055-.068.1-.103.165-.05.078-.1.156-.157.233-.042.056-.09.112-.135.167a5.07 5.07 0 0 1-.197.227 6.42 6.42 0 0 1-.164.168c-.075.074-.153.15-.236.223l-.192.166c-.088.073-.18.146-.275.22l-.218.163a10.23 10.23 0 0 1-.316.217l-.24.158a11.05 11.05 0 0 1-.36.216l-.258.15c-.132.073-.272.146-.412.22l-.267.138c-.153.076-.315.15-.476.225l-.26.12c-.213.094-.434.187-.66.278-.045.018-.086.037-.13.055a27.24 27.24 0 0 1-.85.321c-.08.03-.168.057-.25.085l-.65.22c-.116.038-.238.073-.357.1l-.487.147V14a.92.92 0 0 0-.065-.322c-.014-.04-.027-.078-.046-.115-.3-1.19-1.128-2.293-2.402-3.293-.007-.006-.013-.012-.02-.017-.182-.143-.385-.28-.585-.418-3.547-2.51-10.075-4.48-19.335-4.786C26.7 5.018 25.86 5 25 5c-.854 0-1.703.017-2.545.048-2.498.083-4.787.29-6.884.594C19.445 3.612 26.273 2 35 2zM13.493 8.06c.252-.05.512-.094.77-.14l1.01-.175.905-.137 1.028-.136.885-.107a58.72 58.72 0 0 1 1.833-.17c.237-.02.478-.03.717-.047l1.47-.08.707-.028L25 7a69.12 69.12 0 0 1 2.433.044c.48.017.943.048 1.41.075l.902.05c.62.045 1.224.103 1.82.164l.374.035c.677.074 1.336.16 1.98.253.033.005.068.01.1.013 3.37.498 6.26 1.256 8.526 2.157l.077.03c.406.163.786.332 1.15.503l.17.078a16.78 16.78 0 0 1 .914.48l.24.136a11.65 11.65 0 0 1 .696.447l.28.197a7.92 7.92 0 0 1 .507.411c.095.083.2.166.276.25a5.29 5.29 0 0 1 .351.379c.08.096.16.192.228.29.086.12.16.24.225.36a2.9 2.9 0 0 1 .146.304 2.47 2.47 0 0 1 .114.358c.04.164.08.326.08.488 0 3.548-9.445 7.5-23 7.5S2 18.048 2 14.5c0-2.42 4.4-5.025 11.493-6.44zM25 58c-13.036 0-22.4-3.703-22.968-7.162A.93.93 0 0 0 2 50.707v-8.414c.028.026.063.05.092.077.218.192.44.383.7.567C6.55 45.786 14.082 48 25 48c10.872 0 18.386-2.196 22.17-5.028a10.18 10.18 0 0 0 .83-.678l.001 8.41a1.02 1.02 0 0 0-.032.135c-.033.204-.103.41-.196.613-.036.08-.092.158-.137.237C45.826 54.877 36.97 58 25 58zm32.968-12.162c-.317 1.94-3.314 3.89-7.972 5.255A.95.95 0 0 0 50 51v-9.828l.126-.037 1.168-.346c2.974-.94 5.233-2.103 6.706-3.43v8.346a.97.97 0 0 0-.032.134z" transform="matrix(1.252775 0 0 1.252775 135.416759 158.416759)" id="H" class="B"/><path d="M444.902 365.824L231.57 152.5c-3.072-3.03-7.637-3.968-11.627-2.304a10.67 10.67 0 0 0-6.592 9.856v295.38a10.66 10.66 0 0 0 5.995 9.579c3.67 1.792 8.043 1.344 11.22-1.173l54.165-42.347 47.275 85.077a10.7 10.7 0 0 0 9.344 5.483 10.69 10.69 0 0 0 4.779-1.131l64-32c2.603-1.3 4.565-3.605 5.42-6.38a10.82 10.82 0 0 0-.853-8.341l-44.544-80.15h67.2c4.3 0 8.192-2.603 9.856-6.592s.746-8.576-2.305-11.627zm-92.864-3.093c-3.776 0-7.275 2.005-9.195 5.27-1.92 3.243-1.984 7.275-.15 10.58l47.936 86.25-44.907 22.464-48.363-87.083a10.7 10.7 0 0 0-7.211-5.291 10.44 10.44 0 0 0-2.133-.213 10.72 10.72 0 0 0-6.57 2.26l-46.763 36.565v-247.74l176.94 176.94H352.04zM224.017 0c-5.888 0-10.667 4.78-10.667 10.667v64c0 5.888 4.78 10.667 10.667 10.667s10.667-4.78 10.667-10.667v-64C234.683 4.78 229.905 0 224.017 0zm-85.334 149.333h-64c-5.888 0-10.667 4.78-10.667 10.667s4.78 10.667 10.667 10.667h64c5.888 0 10.667-4.78 10.667-10.667s-4.78-10.667-10.667-10.667zm234.667 0h-64c-5.888 0-10.667 4.78-10.667 10.667s4.78 10.667 10.667 10.667h64c5.888 0 10.667-4.78 10.667-10.667s-4.78-10.667-10.667-10.667zM171.217 92.117l-45.27-45.248c-4.16-4.16-10.923-4.16-15.083 0s-4.16 10.923 0 15.083l45.27 45.248c2.1 2.07 4.82 3.115 7.552 3.115s5.46-1.024 7.53-3.115c4.16-4.16 4.16-10.923 0-15.083zm0 120.703c-4.16-4.16-10.923-4.16-15.083 0l-45.27 45.248c-4.16 4.16-4.16 10.923 0 15.083 2.1 2.07 4.82 3.115 7.552 3.115s5.46-1.045 7.53-3.115l45.27-45.248c4.16-4.16 4.16-10.923 0-15.083zM337.17 46.87c-4.16-4.18-10.923-4.18-15.104 0l-45.27 45.248c-4.16 4.16-4.16 10.923 0 15.083 2.1 2.07 4.82 3.115 7.552 3.115s5.46-1.024 7.552-3.115l45.27-45.248c4.16-4.16 4.16-10.9 0-15.083z" transform="matrix(.117178 0 0 .117178 50.000006 -22)" id="I" class="B"/><path d="M39.914 0H.5v49h48V8.586L39.914 0zM35.5 2v14h-24V2h24zm-26 45V28h29v19h-29zm37 0h-6V26h-33v21h-5V2h7v16h28V2h1.586L46.5 9.414V47zm-33-14h7a1 1 0 1 0 0-2h-7a1 1 0 1 0 0 2zm10 2h-10a1 1 0 1 0 0 2h10a1 1 0 1 0 0-2zm2.3.3c-.18.2-.3.45-.3.7s.1.52.3.7a1.03 1.03 0 0 0 .71.29 1.05 1.05 0 0 0 .71-.29 1.05 1.05 0 0 0 .29-.71 1.05 1.05 0 0 0-.29-.71 1.05 1.05 0 0 0-1.42 0zM33.5 4h-6v10h6V4zm-2 8h-2V6h2v6z" transform="matrix(.81641 .34989 -.34989 .81641 249.570263 166.425657)" id="J" class="B"/><path d="M395.5 135.8c-5.2-30.9-20.5-59.1-43.9-80.5-26-23.8-59.8-36.9-95-36.9-27.2 0-53.7 7.8-76.4 22.5-18.9 12.2-34.6 28.7-45.7 48.1-4.8-.9-9.8-1.4-14.8-1.4-42.5 0-77.1 34.6-77.1 77.1 0 5.5.6 10.8 1.6 16C16.7 200.7 0 232.9 0 267.2c0 27.7 10.3 54.6 29.1 75.9 19.3 21.8 44.8 34.7 72 36.2h86.8c7.5 0 13.5-6 13.5-13.5s-6-13.5-13.5-13.5h-85.6C61.4 349.8 27 310.9 27 267.1c0-28.3 15.2-54.7 39.7-69 5.7-3.3 8.1-10.2 5.9-16.4-2-5.4-3-11.1-3-17.2 0-27.6 22.5-50.1 50.1-50.1 5.9 0 11.7 1 17.1 3 6.6 2.4 13.9-.6 16.9-6.9 18.7-39.7 59.1-65.3 103-65.3 59 0 107.7 44.2 113.3 102.8.6 6.1 5.2 11 11.2 12 44.5 7.6 78.1 48.7 78.1 95.6 0 49.7-39.1 92.9-87.3 96.6h-73.7c-7.5 0-13.5 6-13.5 13.5s6 13.5 13.5 13.5h75.2c30.5-2.2 59-16.2 80.2-39.6 21.1-23.2 32.6-53 32.6-84-.1-56.1-38.4-106-90.8-119.8zM324.2 280a13.46 13.46 0 0 0 0-19.1l-71.5-71.5c-2.5-2.5-6-4-9.5-4s-7 1.4-9.5 4l-71.5 71.5a13.46 13.46 0 0 0 0 19.1c2.6 2.6 6.1 4 9.5 4s6.9-1.3 9.5-4l48.5-48.5v222.9c0 7.5 6 13.5 13.5 13.5s13.5-6 13.5-13.5V231.5l48.5 48.5c5.2 5.3 13.7 5.3 19 0z" transform="matrix(.16317 0 0 .16317 265.331293 220.32533)" id="K" class="B"/><path d="M469.584 428.4c-2.087-2.38-5.04-4.7-8.846-6.995-.575-.373-2.143-1.28-4.702-2.7-2.566-1.43-4.613-2.666-6.143-3.716-1.52-1.048-3.52-2.854-5.996-5.425-2.47-2.566-4.42-5.283-5.852-8.138s-2.807-6.704-4.14-11.56-2.088-10.232-2.283-16.133c-2.666 2.276-4.138 6.797-4.425 13.56-.287 6.756 1.144 13.65 4.285 20.694s7.85 11.607 14.13 13.706c6.088 2.098 10.988 4.328 14.705 6.707 3.706 2.382 6.1 5.1 7.14 8.135 1.047 3.053-.72 6.334-5.284 9.852-4.572 3.525-11.898 6.995-21.984 10.432-13.894 4.753-23.746 8.802-29.554 12.128-5.804 3.333-14.317 9.664-25.55 18.986-7.617 6.282-15.704 9.664-24.273 10.14-8.56.48-15.512-2.662-20.837-9.418-5.332-6.755-7.05-16.316-5.144-28.695 3.617-23.8 3.528-42.35-.277-55.67-3.046-10.47-3.717-19.702-1.998-27.696 1.7-7.986 4.373-12.647 7.994-13.982 3.606-1.338 7.515 1.52 11.703 8.56.373.95 1.235 2.807 2.563 5.568s2.423 4.716 3.288 5.852c.856 1.143 2.14 2.618 3.854 4.43s3.864 3.093 6.427 3.86c2.567.76 5.562 1.235 8.994 1.424 6.47.188 12.27-1.143 17.415-3.997 5.137-2.854 8.997-6.043 11.563-9.564a309.74 309.74 0 0 1 7.707-10.137c2.566-3.24 4.805-5.048 6.7-5.43 2.1-.373 3.997-2.468 5.7-6.28 1.712-3.805 2.854-9.086 3.426-15.84s.096-14.8-1.424-24.123c-2.857-16.566-8.524-34.74-17-54.535-8.473-19.797-17.936-35.3-28.407-46.54-18.842-19.983-31.494-40.73-37.972-62.24-6.656-22.648-9.507-43.015-8.56-61.098.954-12.944-1.855-26.982-8.42-42.115S312.86 23.723 302.012 15.73c-6.85-5.137-15.324-9.086-25.406-11.848C266.52 1.112 256.428-.17 246.34.02c-12.37 0-22.27 1.997-29.7 5.996-15.227 8.186-25.312 18.13-30.264 29.836s-7.232 26.122-6.854 43.253c.765 37.687 2.284 67.2 4.57 88.505-2.667 9.9-14.465 28.454-35.404 55.672-3.8 3.8-7.52 8.947-11.138 15.418s-6.47 12.28-8.564 17.415-4.902 12.56-8.423 22.27l-7.566 20.554c-1.332 3.432-3.427 7.422-6.28 11.998-2.856 4.564-5.145 9.04-6.854 13.4-1.7 4.377-2.663 9.325-2.853 14.846-.2 4.188 0 7.806.572 10.848.76 4.575 2.2 6 4.28 4.288 8.57-6.472 19.323-2.666 32.264 11.423 9.136 9.897 25.22 32.93 48.25 69.094 1.903 3.234 3.805 6.707 5.708 10.428 1.908 3.706 3.7 8.65 5.426 14.838 1.713 6.194 2.428 11.756 2.14 16.707s-2.474 9.52-6.567 13.702-10.232 6.85-18.415 8c-4.38.57-9.657.195-15.846-1.143-6.186-1.332-14.038-3.52-23.553-6.564s-16.558-5.14-21.127-6.283c-6.658-1.526-16.127-3.467-28.406-5.852s-20.322-4.14-24.128-5.284c-6.47-1.7-10-4.182-10.56-7.422-.572-2.666.76-7.23 3.997-13.7s4.854-11.14 4.854-14c.188-2.098.094-4.185-.288-6.282s-.806-3.714-1.283-4.856-1.285-2.854-2.428-5.14-1.903-4-2.284-5.136c-3.424-7.998-3.9-13.43-1.427-16.28 1.7-2.475 5.804-3.426 12.275-2.852 9.707.952 17.605-.48 23.697-4.287 10.085-6.28 13.134-16.368 9.135-30.266 0 6.47-1.143 11.32-3.427 14.56-2.284 3.234-6.283 6.567-12 9.996-3.234 1.903-8.947 3.043-17.13 3.43-8.183.38-13.6 1.714-16.274 3.997-1.902 1.714-2.9 4.284-2.996 7.7-.094 3.433.337 6.9 1.287 10.424s1.903 7.562 2.853 12.132 1.33 8.38 1.143 11.423c-.2 2.1-1.908 7.282-5.142 15.554-3.234 8.282-3.9 14.612-1.997 18.986.953 2.098 2.568 3.956 4.853 5.57s5.47 2.998 9.563 4.145 7.85 2.046 11.278 2.7l14.272 2.563 14.56 2.7c12.182 2.478 26.075 6.57 41.684 12.278s26.17 8.658 31.7 8.847c5.33.188 10.42-.903 15.275-3.285 4.853-2.375 8.992-5.1 12.42-8.135s8.516-5.903 15.27-8.565 14.325-4.093 22.7-4.284l16.558-.712 16.273-.428 37.113.283c5.7.195 10.184 1.096 13.42 2.715s5.332 3.473 6.28 5.563c.95 2.1 2.53 4.52 4.72 7.283 2.184 2.758 5 4.996 8.412 6.707 7.23 3.43 15.704 4.808 25.413 4.14s16.18-2.522 19.413-5.567c5.33-5.137 12.512-11.23 21.553-18.27s17.187-12.37 24.414-15.988c1.52-.767 4.1-2.002 7.707-3.717l9.13-4.428c2.475-1.238 5.476-2.8 9-4.712 3.524-1.906 6.38-3.665 8.57-5.284s4.42-3.47 6.707-5.568c2.283-2.1 3.758-4.185 4.43-6.28a16.48 16.48 0 0 0 .712-6.424c-.195-2.184-1.332-4.463-3.43-6.848zM316.56 152.468c.568-.378.952-.522 1.14-.428s.572.478 1.14 1.143l1.574 1.858c.473.566 1.137 1.33 1.992 2.28s1.76 1.713 2.707 2.284c1.15.76 2.525 1.287 4.144 1.57s2.857.76 3.717 1.425 1.48 1.76 1.852 3.284c.376 2.096.058 3.995-1 5.708-1.054 1.715-2.43 2.478-4.147 2.286-3.426-.762-7.14-3.758-11.133-8.993s-4.662-9.373-1.997-12.42zM281.154 41.555c.948-1.237 1.52-2.236 1.708-2.996.38-1.146.428-2.334.144-3.57s-.2-2.474.284-3.7 1.574-1.95 3.288-2.14c1.712 0 3.997 1.43 6.852 4.283.568.382 1.472.953 2.703 1.713 1.24.762 2.095 1.427 2.57 1.997s.712 1.05.712 1.427c-.38.95-1.235 1.622-2.563 2s-2.762.572-4.28.572-2.382.094-2.57.284c-1.523.572-2.95 1.427-4.285 2.568s-2.378 2-3.138 2.57c-.767.57-1.526.57-2.286 0-.76-1.143-1.047-1.952-.855-2.426s.765-1.332 1.716-2.57zm-138.182 213.7c1.328-1.52 2.283-2.758 2.853-3.7s1.093-2.238 1.57-3.854.904-2.8 1.285-3.57c.383-.765.955-1.05 1.715-.86.378-.094.662.094.86.57l.284.715v.857c0 .288-.05.666-.144 1.143a5.13 5.13 0 0 1-.428 1.285c-.193.383-.382.955-.57 1.714s-.378 1.427-.572 1.997c-.76 1.908-1.952 3.617-3.567 5.14s-2.8 2.2-3.57 1.998c-1.142-.378-1.044-1.525.287-3.426zM329.683 431.4c-.38 6.088-1.666 14.657-3.856 25.697l-4.145 21.98c-3.997-.195-6.28-1.67-6.85-4.43s0-6.327 1.714-10.707c4.186-12.758 6.37-21.512 6.564-26.266.387-8.757-.568-13.706-2.848-14.846-2.102-1.522-5.335 1.335-9.712 8.562-8.38 13.706-25.222 21.98-50.535 24.842-22.836 3.046-38.634-.38-47.392-10.283-1.903-1.332-3.806-1.568-5.708-.7-1.903.85-3.14 1.76-3.7 2.703-.188.384 0 .952.572 1.715s1.475 1.902 2.712 3.426 2.236 3.046 2.996 4.575c7.426 12.94 6.76 21.693-1.997 26.262 0-8.75-.666-15.46-1.997-20.122s-3.995-9.8-7.994-15.42c-3.995-5.613-6.755-9.85-8.276-12.703 5.708-.568 10.04-2.76 13-6.567s4.28-7.898 3.997-12.275-1.95-7.998-4.996-10.852c-1.713-1.7-10.566-8.993-26.553-21.84s-25.885-21.46-29.7-25.837c-.765-.763-3.046-2.666-6.854-5.712s-6.2-5.708-7.14-7.994c-8.757-19.215-9.707-35.02-2.856-47.387l1.14-1.427c.95-.188 1.046 1.522.284 5.14-1.14 5.33-1.52 10.656-1.14 15.988.76 11.994 4.187 20.937 10.277 26.833 4 4.004 6.757 3.717 8.28-.853 1.143-1.526 1.665-7.14 1.57-16.85-.1-9.702.05-16.27.43-19.698 1.524-10.848 6.045-24.27 13.562-40.25 7.517-16 13.468-24.556 17.845-25.697-3.427-5.52-4.52-11.516-3.283-17.988s3.237-11.995 5.995-16.56 5.568-9.847 8.42-15.844 4.283-11.374 4.283-16.132c0-1.33.098-2.283.288-2.854.57-1.713 2.95.38 7.137 6.28 7.994 11.803 14 18.752 17.988 20.845 4.187 2.28 8.848 2.187 13.988-.288s11.466-6.567 18.986-12.275 13.94-9.897 19.27-12.56c.575-.193 1.476-.62 2.718-1.287 1.23-.662 2.183-1.14 2.847-1.43s1.52-.7 2.57-1.283c1.04-.57 1.848-1.047 2.42-1.43a20.08 20.08 0 0 0 1.711-1.287c.567-.478.947-.95 1.143-1.427.2-.476.287-.903.287-1.285-.383-1.714-1.2-2.762-2.43-3.14s-2.9-.144-4.996.715-4.428 2-6.995 3.426l-8.562 4.854a131.27 131.27 0 0 1-9.562 4.997c-3.234 1.524-6.662 2.856-10.28 4s-7.042 1.8-10.277 2c-7.994.2-14.368-1.9-19.126-6.28-3.045-2.858-4.66-4.665-4.854-5.426s.666-.95 2.568-.57c10.282 1.333 17.798 1.52 22.557.57 4.948-.76 11.6-2.95 19.985-6.567l12.994-5.568c6.943-2.946 12.323-4.993 16.13-6.136 2.3-.572 3.86-1.475 4.716-2.712s1.14-2.38.852-3.428a3.95 3.95 0 0 0-1.851-2.424c-2.1-1.143-4-.38-5.708 2.284-.955 1.713-2.957 3.38-6 4.997s-5.854 2.855-8.422 3.7-5.852 1.855-9.85 2.996-6.184 1.8-6.567 2c-10.467 3.234-20.174 4.663-29.12 4.28-4.188-.188-7.565-.8-10.133-1.856s-4.333-2.28-5.282-3.7-2.474-3.234-4.568-5.424-4.476-4.045-7.14-5.57c-1.903-.95-2.618-2.663-2.14-5.137s1.95-5.046 4.425-7.7c.2-.192 2.142-1.38 5.852-3.57s6.33-4.427 7.854-6.7c1.7-2.664 4.66-5.426 8.848-8.282.2-.76.334-2.853.428-6.28s-.8-7.136-2.712-11.133-4.475-5.995-7.7-5.995c-4.57-.2-7.804 1.14-9.707 3.997s-2.757 6.375-2.568 10.562c.193 3.615 1.097 6.8 2.712 9.563s3.095 4.143 4.427 4.143c2.092-.193 2.758.566 1.997 2.28-1.14 2.096-2.666 3.43-4.568 4-1.336.378-2.812-.905-4.427-3.855s-2.855-6.517-3.7-10.706-1.2-7.708-.998-10.566c.378-5.9 1.947-11.563 4.7-16.988s6.7-8.042 11.848-7.854c5.33.193 9.616 3.43 12.85 9.7s4.76 14.85 4.57 25.697c.572 1.333 2.046 1.8 4.427 1.427 2.375-.382 5.518-.43 9.42-.144s6.706 1.282 8.42 2.996c.193 0 .288-1.43.288-4.283-3.427-23.98 5.042-36.732 25.4-38.256 3.04.572 5.6 1.287 7.7 2.14 2.1.855 4.33 2.286 6.7 4.283s4.376 4.9 5.995 8.708 2.905 8.57 3.856 14.277v10.562c0 6.1-1.242 9.517-3.716 10.28-3.994 1.33-6.845 1.285-8.556-.144s-1.53-3.95.568-7.566c1.902-4.758 1.522-10.282-1.144-16.562s-7.52-9.135-14.558-8.563c-4.76.2-8.186 2.76-10.28 7.708s-2.853 9.803-2.282 14.562 1.615 7.232 3.142 7.42c1.14.193 4.523 1.714 10.137 4.57 5.622 2.855 9.855 4.567 12.706 5.138 7.423 1.52 11.652 3.9 12.703 7.137s.62 7.948-1.283 14.133-2.475 11.276-1.708 15.275c.76 4.192 2.2 7.994 4.285 11.42s4.325 6.567 6.707 9.424c2.378 2.85 5.18 8.183 8.425 15.985 3.23 7.806 6.18 17.607 8.843 29.408.188.2.9.856 2.14 2s2.47 2.568 3.713 4.28 2.714 4.045 4.428 6.995 3.573 7.282 5.57 12.994c1.992 5.708 3.854 12.28 5.564 19.698 2.095 8.76 3.2 18.935 3.285 30.553.097 11.608.856 19.555 2.286 23.84s5.093 6.047 10.992 5.284c7.423-.38 12.187-4.377 14.27-12 6.283-22.08 1.15-48.54-15.413-79.37-6.283-11.992-11.704-19.892-16.276-23.697 6.66 3.806 13.515 10.94 20.56 21.413s11.512 20.275 13.415 29.405l1.567 7.566 1.424 7.14c.092.667.48 2.618 1.14 5.853.67 3.236 1 5.33 1 6.282s.092 2.8.287 5.568.144 4.9-.144 6.423-.568 3.573-.855 6.137-.76 5.044-1.427 7.426l-2.136 7.85c10.465 4.568 15.7 8.562 15.7 12-3.994-3.237-9.7-5.376-17.135-6.413-7.427-1.05-14.318-.052-20.697 2.994s-9.664 8.087-9.856 15.126c-6.85 0-11.707 1.7-14.558 5.144-4.186 4.945-6.372 11.652-6.563 20.126-.2 8.466.517 17.702 2.135 27.688 1.626 9.992 2.242 16.983 1.858 20.983zm-119.62-330.904c-.572-.188-1.047-.763-1.425-1.713 0-1.7.854-2.38 2.568-1.997 1.143.378 2.24 1.807 3.284 4.28s1.285 5.33.715 8.566c0 .57-.284.86-.86.854-2.096 0-2.856-1.902-2.284-5.708.57-2.855-.097-4.283-2-4.283zm73.946 4.57l-.568.855c-1.52.95-2.275 1.14-2.275.572-.767-5.142-2.48-8.092-5.14-8.854l-1.143-.57c-1.335-1.143-.67-1.8 2-2 .57-.2 1.427.093 2.57.855s2.2 1.953 3.142 3.57 1.424 3.473 1.424 5.57zm-41.683 13.142c1.903-.572 3.57-.14 4.998 1.287s2.522 2.046 3.284 1.853c1.138-.568 1.425-1.427.854-2.568-1.522-2.475-4.566-2.665-9.136-.572z" transform="matrix(.160862 0 0 .160862 219.862842 286.861477)" id="L" class="B"/><g transform="matrix(2.443506 -.518319 .518319 2.443506 228.511637 59.982564)" id="M" class="B"><path d="M30 49.5c-12.683 0-23-10.317-23-23a1 1 0 1 1 2 0c0 11.58 9.42 21 21 21s21-9.42 21-21a1 1 0 1 1 2 0c0 12.683-10.317 23-23 23z"/><path d="M1 34.5c-.256 0-.512-.098-.707-.293a1 1 0 0 1 0-1.414l7-7a1 1 0 0 1 1.414 1.414l-7 7c-.195.195-.45.293-.707.293z"/><path d="M15 34.5c-.256 0-.512-.098-.707-.293l-7-7a1 1 0 0 1 1.414-1.414l7 7a1 1 0 0 1 0 1.414c-.195.195-.45.293-.707.293zm36.852-9.565a1 1 0 0 1-.992-.884l-.307-1.884a1 1 0 0 1 .773-1.184 1 1 0 0 1 1.184.773l.336 2.062a1 1 0 0 1-.877 1.109c-.04.006-.08.008-.117.008zm-1.494-5.8c-.394 0-.767-.233-.925-.62l-.805-1.73a1 1 0 1 1 1.774-.926l.88 1.895a1 1 0 0 1-.545 1.305c-.124.05-.253.075-.38.075zm-3.004-5.17a1 1 0 0 1-.79-.385l-1.24-1.45a1 1 0 0 1 .046-1.413 1 1 0 0 1 1.413.046l1.358 1.587a1 1 0 0 1-.787 1.615zM43.07 9.803c-.207 0-.415-.063-.595-.196L40.9 8.543a1.001 1.001 0 1 1 1.04-1.71L43.666 8a1 1 0 0 1-.597 1.804zm-5.246-2.87a1.01 1.01 0 0 1-.356-.065l-1.8-.597a1 1 0 0 1-.694-1.231c.147-.532.7-.845 1.23-.694L38.18 5a1 1 0 0 1-.356 1.934zM31.997 5.6c-.03 0-.06-.001-.1-.004L30 5.5a1 1 0 1 1 0-2l2.086.094a1 1 0 0 1-.089 1.996z"/></g><path d="M426.024 86.447h-216.32l-84.91 298.91c-2.568 7.967-9.854 13.482-18.22 13.77l-.688.006a19.87 19.87 0 0 1-18.436-12.478l-34.714-86.782H19.85C8.884 299.876 0 290.986 0 280.022a19.86 19.86 0 0 1 19.851-19.854h46.33c8.11 0 15.42 4.94 18.436 12.483l19.237 48.1 72.472-260.218c2.64-8.213 10.28-13.78 18.903-13.78h230.798c10.97 0 19.854 8.9 19.854 19.85s-8.892 19.854-19.856 19.854zm10.7 266.78l-78.26-87.904 74.576-82.783c1.318-1.454 1.638-3.547.857-5.34-.804-1.79-2.577-2.946-4.54-2.946h-47.18c-1.442 0-2.802.63-3.76 1.72l-50.06 58.047-49.674-58.03a4.95 4.95 0 0 0-3.771-1.738H225.58c-1.956 0-3.73 1.15-4.52 2.93a4.94 4.94 0 0 0 .824 5.332l73.743 82.8-77.64 87.923c-1.297 1.465-1.605 3.552-.813 5.325.813 1.785 2.586 2.92 4.528 2.92h48.9c1.472 0 2.867-.65 3.807-1.785l51.82-62.18 53.05 62.23a4.97 4.97 0 0 0 3.782 1.743h49.97c1.962 0 3.735-1.14 4.527-2.926.8-1.793.48-3.88-.832-5.345z" transform="matrix(.105761 0 0 .105761 160.409096 326.421721)" id="N" class="B"/><path d="M263.507 62.967C265.18 51.833 272.833 40 283.73 40c11.028 0 20 8.972 20 20h40c0-33.084-26.916-60-60-60-33.63 0-55.527 28.7-59.784 57.073L211.083 144H149.73v40h55.436L165.83 450c-1.063 10.62-9.393 22-20.1 22-11.028 0-20-8.972-20-20h-40c0 33.084 26.916 60 60 60 33.66 0 56.77-29.14 59.848-57.496L245.6 184h60.13v-40h-54.2l12-81.033zM426.27 248h-48.035l-25.987 39.085L334.923 248H291.17l34.827 78.57L270.523 410h48.035l26.652-40.085L362.98 410h43.753l-35.27-79.57z" transform="matrix(.117188 0 0 .117188 179 91)" id="O" class="B"/><path d="M479.915 130.822c-2.558-15.436-15.918-26.75-31.564-26.728-13.482.04-25.488 8.538-30.008 21.24l-98.176-8.928a47.68 47.68 0 0 0-3.752-15.296l70.4-45.536c13.045 11.832 33.2 10.85 45.043-2.196s10.85-33.2-2.196-45.043-33.2-10.85-45.043 2.196a31.89 31.89 0 0 0-8.268 21.563 31.6 31.6 0 0 0 1.768 10.032l-70.4 45.6C289.885 68.2 259.6 66.8 240.054 84.644a47.91 47.91 0 0 0-11.807 16.682l-84.504-20.328C148.708 41.545 120.75 5.536 81.297.57S5.835 23.564.87 63.017s22.993 75.462 62.446 80.427a72.21 72.21 0 0 0 6.54.522l6.896 89.6c-25.7 6.38-41.36 32.383-34.983 58.082a48.01 48.01 0 0 0 24.04 30.8L34.5 416.3c-.728-.048-1.416-.216-2.16-.216-17.757-.084-32.22 14.243-32.303 32s14.243 32.22 32 32.303 32.22-14.243 32.303-32a32.15 32.15 0 0 0-14.632-27.11L81 327.47c4.87.832 9.85.832 14.72 0L127 421.286c-14.757 9.636-18.908 29.4-9.272 44.168s29.4 18.908 44.168 9.272 18.908-29.4 9.272-44.168c-5.9-9.05-16-14.494-26.808-14.464-.744 0-1.432.168-2.16.216l-31.296-93.864c23.38-12.496 32.202-41.58 19.706-64.96a48 48 0 0 0-37.906-25.169l-6.88-89.528c24.934-4.8 45.506-22.37 54.168-46.24l84.536 20.288c-.08 1.08-.168 2.16-.168 3.256.12 26.5 21.7 47.9 48.22 47.78 21.626-.1 40.515-14.648 46.133-35.532l98.168 8.928c2.885 17.4 19.337 29.183 36.746 26.298s29.183-19.337 26.298-36.746zM408.35 16.094c8.837 0 16 7.163 16 16s-7.163 16-16 16-16-7.163-16-16 7.163-16 16-16zm-376 448c-8.837 0-16-7.163-16-16s7.163-16 16-16 16 7.163 16 16-7.163 16-16 16zm112-32c8.837 0 16 7.163 16 16s-7.163 16-16 16-16-7.163-16-16 7.163-16 16-16zm-56-184c17.673 0 32 14.327 32 32s-14.327 32-32 32-32-14.327-32-32 14.327-32 32-32zm-16-120c-30.928 0-56-25.072-56-56s25.072-56 56-56 56 25.072 56 56c-.035 30.913-25.087 55.965-56 56zm200 24c-17.673 0-32-14.327-32-32s14.327-32 32-32 32 14.327 32 32-14.327 32-32 32zm176 0c-8.837 0-16-7.163-16-16s7.163-16 16-16 16 7.163 16 16-7.163 16-16 16zM418.624 336.83c-3.402-.5-6.836-.736-10.273-.735a72.06 72.06 0 0 0-67.144 46.216l-69.072-18.016c.128-1.392.216-2.784.216-4.2a47.76 47.76 0 0 0-11.144-30.704l45.144-52.664a31.54 31.54 0 0 0 14 3.368c17.757.083 32.22-14.245 32.302-32.002s-14.245-32.22-32.002-32.302-32.22 14.245-32.302 32.002a32.16 32.16 0 0 0 5.802 18.574l-45.112 52.64a47.63 47.63 0 0 0-24.688-6.912c-.8 0-1.6.08-2.4.12l-15.064-67.752c15.663-8.062 21.825-27.294 13.763-42.957s-27.294-21.825-42.957-13.763-21.825 27.294-13.763 42.957c5.3 10.3 15.77 16.916 27.35 17.283l15.04 67.672c-24.576 9.94-36.44 37.92-26.5 62.496s37.92 36.44 62.496 26.5c11.495-4.65 20.745-13.567 25.8-24.884L337.15 397.8c-5.664 39.332 21.63 75.8 60.96 81.473s75.8-21.63 81.473-60.96-21.627-75.8-60.96-81.473zM320.35 232.094c8.837 0 16 7.163 16 16s-7.163 16-16 16-16-7.163-16-16 7.163-16 16-16zm-128 0c-8.837 0-16-7.163-16-16s7.163-16 16-16 16 7.163 16 16-7.163 16-16 16zm32 160c-17.673 0-32-14.327-32-32s14.327-32 32-32 32 14.327 32 32-14.327 32-32 32zm184 72c-30.928 0-56-25.072-56-56s25.072-56 56-56 56 25.072 56 56c-.035 30.913-25.087 55.965-56 56z" transform="matrix(.123033 -.037663 .037663 .123033 24.408016 63.486357)" id="P" class="B"/><g transform="matrix(.124975 0 0 .124975 288 80)" id="Q" class="B"><path d="M240.098.047H240C107.453.047 0 107.5 0 240.047s107.453 240 240 240h.098c132.547 0 240-107.45 240-240s-107.453-240-240-240zm205.965 152H339.895c-6.2-22.215-14.82-43.68-25.734-64h90.28a224.74 224.74 0 0 1 41.621 64zm-206.04-133.4a278.5 278.5 0 0 1 45.887 53.391H194.2a278.22 278.22 0 0 1 45.832-53.391zm-65 53.4H92.168c35.23-31.156 79.4-50.383 126.223-54.926a298.56 298.56 0 0 0-43.367 54.926zm86.672-54.94a223.07 223.07 0 0 1 126.328 54.941H305.1a298.51 298.51 0 0 0-43.395-54.941zm34.13 70.94a297.01 297.01 0 0 1 27.609 64h-166.68a296.03 296.03 0 0 1 27.535-64zm-220.07 0h90.207a312.19 312.19 0 0 0-25.672 64H34.13c10.12-23.55 24.2-45.195 41.625-64zm-47.723 80h424.13c15.914 46.684 15.914 97.32 0 144H28.03c-15.914-46.68-15.914-97.316 0-144zm212 293.395c-17.477-15.785-32.883-33.727-45.84-53.395h91.72c-12.973 19.668-28.395 37.6-45.887 53.395zm65.06-53.395h82.934a223.07 223.07 0 0 1-126.398 54.945 298.61 298.61 0 0 0 43.465-54.945zm-86.7 54.93a223.07 223.07 0 0 1-126.223-54.93h82.855c12.254 19.95 26.8 38.383 43.367 54.93zm-34.102-70.93a295.99 295.99 0 0 1-27.535-64h166.68a297.01 297.01 0 0 1-27.609 64zm-150.16-64H140.3a312.19 312.19 0 0 0 25.672 64H75.754c-17.426-18.8-31.504-40.45-41.625-64zm370.313 64h-90.28a312.42 312.42 0 0 0 25.734-64h106.168c-10.12 23.55-24.2 45.2-41.62 64zM64.375 282.152a8 8 0 0 0 7.617 5.895h.105c3.53 0 6.648-2.316 7.664-5.703l16.336-54.457 16.336 54.457c1.012 3.387 4.13 5.703 7.664 5.703h.102c3.57-.043 6.68-2.45 7.617-5.895l24-88-15.44-4.207-16.648 61.04-16-53.23a8 8 0 0 0-7.664-5.707c-3.53 0-6.648 2.32-7.664 5.707l-16 53.23-16.645-61.04-15.44 4.207zm0 0"/><path d="M215.992 288.047h.105c3.53 0 6.648-2.316 7.664-5.703l16.336-54.457 16.336 54.457c1.012 3.387 4.13 5.703 7.664 5.703h.102c3.57-.043 6.68-2.45 7.617-5.895l24-88-15.44-4.207-16.648 61.04-16-53.23a8 8 0 0 0-7.664-5.707c-3.53 0-6.648 2.32-7.664 5.707l-16 53.23-16.645-61.04-15.44 4.207 24 88c.945 3.47 4.086 5.88 7.68 5.895zm144 0h.105c3.53 0 6.648-2.316 7.664-5.703l16.336-54.457 16.336 54.457c1.012 3.387 4.13 5.703 7.664 5.703h.102c3.57-.043 6.68-2.45 7.617-5.895l24-88-15.44-4.207-16.648 61.04-16-53.23a8 8 0 0 0-7.664-5.707c-3.53 0-6.648 2.32-7.664 5.707l-16 53.23-16.645-61.04-15.44 4.207 24 88c.945 3.47 4.086 5.88 7.68 5.895zm0 0"/></g><path d="M422.846 132.4H89.154a11.02 11.02 0 0 0-11.019 11.019v166.424a11.02 11.02 0 0 0 11.019 11.019 11.02 11.02 0 0 0 11.019-11.019V154.448h311.654v155.405a11.02 11.02 0 0 0 11.019 11.019 11.02 11.02 0 0 0 11.019-11.019V143.43c-.001-6.085-4.935-11.018-11.02-11.018zm79.237 216.792h-20.295V117.797c0-18.366-14.942-33.308-33.308-33.308H63.52c-18.367 0-33.308 14.942-33.308 33.308v231.405H9.917A9.92 9.92 0 0 0 0 359.119v19.468c0 26.977 21.947 48.924 48.924 48.924h414.15c26.977 0 48.924-21.947 48.924-48.924V359.12c.001-5.478-4.438-9.917-9.916-9.917zM52.25 117.797c0-6.214 5.057-11.27 11.27-11.27h384.958c6.216 0 11.27 5.056 11.27 11.27v231.405h-149.2a9.7 9.7 0 0 0-2.148.176c-4.668.898-8.04 4.984-8.04 9.737a15.2 15.2 0 0 1-15.179 15.18h-58.36a15.2 15.2 0 0 1-15.179-15.18c0-5.553-4.6-10.034-10.147-9.915H52.25V117.797zm439.917 260.8c0 16.04-13.05 29.1-29.1 29.1H48.924c-16.04 0-29.1-13.05-29.1-29.1v-9.55h173.403c4.287 14.5 17.72 25.094 33.582 25.094h58.36c15.862 0 29.295-10.604 33.583-25.094h173.404v9.55zM272.33 196.46c-4.304-4.303-11.28-4.303-15.584 0l-69.297 69.3a11.02 11.02 0 0 0 0 15.583c2.152 2.152 4.972 3.227 7.8 3.227a10.99 10.99 0 0 0 7.791-3.227l69.3-69.3c4.303-4.303 4.303-11.28 0-15.584zm41.075 40.16a11.02 11.02 0 0 0-15.583 0l-27.606 27.606c-4.303 4.303-4.303 11.28 0 15.584 2.152 2.152 4.972 3.227 7.8 3.227a10.98 10.98 0 0 0 7.791-3.227l27.606-27.606a11.02 11.02 0 0 0 .001-15.584z" transform="matrix(.117188 0 0 .117188 225 39)" id="R" class="B"/><g transform="matrix(1.111111 0 0 1.111111 182 237)" id="S" class="B"><path d="M27 8c-9.374 0-17 7.626-17 17a16.96 16.96 0 0 0 11 15.9V50a1 1 0 0 0 1 1h1v2a1 1 0 0 0 1 1h6a1 1 0 0 0 1-1v-2h1a1 1 0 0 0 1-1v-9.1A16.96 16.96 0 0 0 44 25c0-9.374-7.626-17-17-17zm3 41a1 1 0 0 0-1 1v2h-4v-2a1 1 0 0 0-1-1h-1v-5h8v5h-1zm1.688-9.758a1 1 0 0 0-.688.95V42h-8v-1.808a1 1 0 0 0-.688-.95C16.145 37.214 12 31.5 12 25a15.02 15.02 0 0 1 15-15 15.02 15.02 0 0 1 15 15c0 6.5-4.145 12.214-10.312 14.242zM27 6a1 1 0 0 0 1-1V1a1 1 0 1 0-2 0v4a1 1 0 0 0 1 1zm24 18h-4a1 1 0 1 0 0 2h4a1 1 0 1 0 0-2zM7 24H3a1 1 0 1 0 0 2h4a1 1 0 1 0 0-2zM43.264 7.322l-2.828 2.828a1 1 0 0 0 0 1.414c.195.195.45.293.707.293s.512-.098.707-.293l2.828-2.828a1 1 0 0 0-1.414-1.414zM12.15 38.436l-2.828 2.828a1 1 0 0 0 0 1.414c.195.195.45.293.707.293s.512-.098.707-.293l2.828-2.828a1 1 0 0 0-1.414-1.414z"/><path d="M41.85 38.436a1 1 0 0 0-1.414 1.414l2.828 2.828c.195.195.45.293.707.293s.512-.098.707-.293a1 1 0 0 0 0-1.414l-2.828-2.828zm-29.7-26.872c.195.195.45.293.707.293s.512-.098.707-.293a1 1 0 0 0 0-1.414l-2.828-2.828a1 1 0 0 0-1.414 1.414l2.828 2.828zM27 13c-6.617 0-12 5.383-12 12a1 1 0 1 0 2 0c0-5.514 4.486-10 10-10a1 1 0 1 0 0-2z"/></g><g transform="matrix(.055156 0 0 .055156 .042446 -.973713)" id="T" class="B"><path d="M119.575 293.47l217.8 28 53.1 131.3h-.1l-189.3 93.5c21.9-4 44.1-6 66.4-6 29.2 0 57.8 3.5 85.1 10.4 55.1 14 104.9 36.4 153 58.1 42.9 19.3 83.5 37.6 124 48.1 5.7 1.5 11.2 2.8 16.7 3.9l-202.6-421.5c-12-27.5-28.5-37.7-51.9-40.7l-255.8-32.9c-35.3-4.5-67.6 20.4-72.2 55.7-4.4 35.3 20.5 67.6 55.8 72.1zm-102.9 459.4c7.1 5.1 15.2 7.5 23.3 7.5 1.8 0 3.5-.1 5.2-.4 10.6-1.4 20.6-7 27.3-16.3 25.9-36.1 66-64.5 112.7-80.1 26.8-8.9 54.8-13.4 82.3-13.4 99.7 0 185.2 59.6 275.2 93.9 48.2 18.4 98.5 32 153.2 32 23 0 46.8-2.4 71.5-7.9 58.1-12.8 107.9-40.4 143.9-79.1 8.6-9.3 16.4-19.1 23.3-29.6 12.2-18.4 7.1-43.2-11.3-55.4-6.8-4.5-14.4-6.6-22-6.6-13 0-25.7 6.3-33.4 17.9-3.1 4.7-6.5 9.2-10.2 13.6-25 29.8-62.5 51.2-107.5 61.1-41.5 9.1-87.3 6.4-128.2-4.2-43-11.2-84.6-29.9-128.8-49.8-47-21.1-95.5-43-148.1-56.4-25-6.4-51.2-9.5-77.7-9.5-36.1 0-72.8 5.9-107.7 17.5-30.5 10.2-58.8 24.4-84.2 42.3-26.8 18.9-49.7 41.4-68.1 67-1.2 1.7-2.2 3.4-3.1 5.2-8.7 17.3-3.9 39 12.4 50.7z"/><circle cx="740" cy="426" r="141"/></g><path d="M6.98 271.18c30.288 25.98 64.616 55.426 131.017 55.426s100.733-29.446 131.02-55.426c28.644-24.568 53.382-45.787 104.98-45.787s76.337 21.22 104.98 45.787c8.385 7.2 21 6.225 28.202-2.16s6.225-21-2.16-28.202c-30.3-25.98-64.62-55.426-131.022-55.426S273.265 214.84 242.976 240.82c-28.644 24.568-53.382 45.787-104.98 45.787S61.664 265.4 33.022 240.82c-8.384-7.2-21-6.226-28.202 2.16a19.99 19.99 0 0 0 2.16 28.2zm0-109.393c30.287 25.98 64.615 55.426 131.017 55.426s100.733-29.446 131.022-55.426C297.662 137.22 322.4 116 373.998 116s76.335 21.218 104.98 45.787a20 20 0 0 0 28.201-2.161c7.192-8.384 6.223-21.012-2.16-28.202C474.73 105.444 440.4 76 373.998 76s-100.733 29.446-131.022 55.426c-28.644 24.568-53.382 45.787-104.98 45.787s-76.332-21.218-104.974-45.787c-8.384-7.192-21-6.226-28.202 2.16s-6.225 21 2.16 28.202zm498.04 188.426c-30.3-25.98-64.62-55.426-131.022-55.426s-100.733 29.446-131.022 55.426C214.332 374.78 189.594 396 137.996 396s-76.33-21.218-104.973-45.785l-.002-.002c-8.384-7.2-21-6.223-28.2 2.16s-6.224 21 2.16 28.202C37.268 406.555 71.597 436 137.996 436s100.733-29.446 131.022-55.426c28.644-24.568 53.382-45.787 104.98-45.787s76.337 21.22 104.98 45.787c8.385 7.2 21 6.225 28.202-2.16s6.225-21-2.16-28.202z" transform="matrix(.079886 0 0 .079886 166.549271 37.549271)" id="U" class="B"/><path d="M457.575 325.1c9.8-12.5 14.5-25.9 13.9-39.7-.6-15.2-7.4-27.1-13-34.4 6.5-16.2 9-41.7-12.7-61.5-15.9-14.5-42.9-21-80.3-19.2-26.3 1.2-48.3 6.1-49.2 6.3h-.1c-5 .9-10.3 2-15.7 3.2-.4-6.4.7-22.3 12.5-58.1 14-42.6 13.2-75.2-2.6-97-16.6-22.9-43.1-24.7-50.9-24.7-7.5 0-14.4 3.1-19.3 8.8-11.1 12.9-9.8 36.7-8.4 47.7-13.2 35.4-50.2 122.2-81.5 146.3-.6.4-1.1.9-1.6 1.4-9.2 9.7-15.4 20.2-19.6 29.4-5.9-3.2-12.6-5-19.8-5h-61c-23 0-41.6 18.7-41.6 41.6v162.5c0 23 18.7 41.6 41.6 41.6h61c8.9 0 17.2-2.8 24-7.6l23.5 2.8c3.6.5 67.6 8.6 133.3 7.3 11.9.9 23.1 1.4 33.5 1.4 17.9 0 33.5-1.4 46.5-4.2 30.6-6.5 51.5-19.5 62.1-38.6 8.1-14.6 8.1-29.1 6.8-38.3 19.9-18 23.4-37.9 22.7-51.9-.4-8.1-2.2-15-4.1-20.1zm-409.3 122.2c-8.1 0-14.6-6.6-14.6-14.6V270.1c0-8.1 6.6-14.6 14.6-14.6h61c8.1 0 14.6 6.6 14.6 14.6v162.5c0 8.1-6.6 14.6-14.6 14.6h-61v.1zm383.7-133.9c-4.2 4.4-5 11.1-1.8 16.3 0 .1 4.1 7.1 4.6 16.7.7 13.1-5.6 24.7-18.8 34.6-4.7 3.6-6.6 9.8-4.6 15.4 0 .1 4.3 13.3-2.7 25.8-6.7 12-21.6 20.6-44.2 25.4-18.1 3.9-42.7 4.6-72.9 2.2h-1.4c-64.3 1.4-129.3-7-130-7.1h-.1l-10.1-1.2c.6-2.8.9-5.8.9-8.8V270.1c0-4.3-.7-8.5-1.9-12.4 1.8-6.7 6.8-21.6 18.6-34.3 44.9-35.6 88.8-155.7 90.7-160.9.8-2.1 1-4.4.6-6.7-1.7-11.2-1.1-24.9 1.3-29 5.3.1 19.6 1.6 28.2 13.5 10.2 14.1 9.8 39.3-1.2 72.7-16.8 50.9-18.2 77.7-4.9 89.5 6.6 5.9 15.4 6.2 21.8 3.9 6.1-1.4 11.9-2.6 17.4-3.5.4-.1.9-.2 1.3-.3 30.7-6.7 85.7-10.8 104.8 6.6 16.2 14.8 4.7 34.4 3.4 36.5-3.7 5.6-2.6 12.9 2.4 17.4.1.1 10.6 10 11.1 23.3.4 8.9-3.8 18-12.5 27z" transform="matrix(.077944 -.032976 .032976 .077944 -20.504741 185.252516)" id="V" class="B"/><path id="W" d="M0 0h700v350H0z"/></defs><pattern id="X" width="350" height="350" patternUnits="userSpaceOnUse"><use xlink:href="#A" x="-350" y="-350"/><use xlink:href="#A" y="-350"/><use xlink:href="#A" x="350" y="-350"/><use xlink:href="#A" x="-350"/><use xlink:href="#A"/><use xlink:href="#A" x="350"/><use xlink:href="#A" x="-350" y="350"/><use xlink:href="#A" y="350"/><use xlink:href="#A" x="350" y="350"/></pattern><use xlink:href="#W" fill="url(#X)"/><pattern id="Y" width="350" height="350" patternUnits="userSpaceOnUse"><use xlink:href="#B" x="-350" y="-350"/><use xlink:href="#B" y="-350"/><use xlink:href="#B" x="350" y="-350"/><use xlink:href="#B" x="-350"/><use xlink:href="#B"/><use xlink:href="#B" x="350"/><use xlink:href="#B" x="-350" y="350"/><use xlink:href="#B" y="350"/><use xlink:href="#B" x="350" y="350"/></pattern><use xlink:href="#W" fill="url(#Y)"/><pattern id="Z" width="350" height="350" patternUnits="userSpaceOnUse"><use xlink:href="#C" x="-350" y="-350"/><use xlink:href="#C" y="-350"/><use xlink:href="#C" x="350" y="-350"/><use xlink:href="#C" x="-350"/><use xlink:href="#C"/><use xlink:href="#C" x="350"/><use xlink:href="#C" x="-350" y="350"/><use xlink:href="#C" y="350"/><use xlink:href="#C" x="350" y="350"/></pattern><use xlink:href="#W" fill="url(#Z)"/><pattern id="a" width="350" height="350" patternUnits="userSpaceOnUse"><use xlink:href="#D" x="-350" y="-350"/><use xlink:href="#D" y="-350"/><use xlink:href="#D" x="350" y="-350"/><use xlink:href="#D" x="-350"/><use xlink:href="#D"/><use xlink:href="#D" x="350"/><use xlink:href="#D" x="-350" y="350"/><use xlink:href="#D" y="350"/><use xlink:href="#D" x="350" y="350"/></pattern><use xlink:href="#W" fill="url(#a)"/><pattern id="b" width="350" height="350" patternUnits="userSpaceOnUse"><use xlink:href="#E" x="-350" y="-350"/><use xlink:href="#E" y="-350"/><use xlink:href="#E" x="350" y="-350"/><use xlink:href="#E" x="-350"/><use xlink:href="#E"/><use xlink:href="#E" x="350"/><use xlink:href="#E" x="-350" y="350"/><use xlink:href="#E" y="350"/><use xlink:href="#E" x="350" y="350"/></pattern><use xlink:href="#W" fill="url(#b)"/><pattern id="c" width="350" height="350" patternUnits="userSpaceOnUse"><use xlink:href="#F" x="-350" y="-350"/><use xlink:href="#F" y="-350"/><use xlink:href="#F" x="350" y="-350"/><use xlink:href="#F" x="-350"/><use xlink:href="#F"/><use xlink:href="#F" x="350"/><use xlink:href="#F" x="-350" y="350"/><use xlink:href="#F" y="350"/><use xlink:href="#F" x="350" y="350"/></pattern><use xlink:href="#W" fill="url(#c)"/><pattern id="d" width="350" height="350" patternUnits="userSpaceOnUse"><use xlink:href="#G" x="-350" y="-350"/><use xlink:href="#G" y="-350"/><use xlink:href="#G" x="350" y="-350"/><use xlink:href="#G" x="-350"/><use xlink:href="#G"/><use xlink:href="#G" x="350"/><use xlink:href="#G" x="-350" y="350"/><use xlink:href="#G" y="350"/><use xlink:href="#G" x="350" y="350"/></pattern><use xlink:href="#W" fill="url(#d)"/><pattern id="e" width="350" height="350" patternUnits="userSpaceOnUse"><use xlink:href="#H" x="-350" y="-350"/><use xlink:href="#H" y="-350"/><use xlink:href="#H" x="350" y="-350"/><use xlink:href="#H" x="-350"/><use xlink:href="#H"/><use xlink:href="#H" x="350"/><use xlink:href="#H" x="-350" y="350"/><use xlink:href="#H" y="350"/><use xlink:href="#H" x="350" y="350"/></pattern><use xlink:href="#W" fill="url(#e)"/><pattern id="f" width="350" height="350" patternUnits="userSpaceOnUse"><use xlink:href="#I" x="-350" y="-350"/><use xlink:href="#I" y="-350"/><use xlink:href="#I" x="350" y="-350"/><use xlink:href="#I" x="-350"/><use xlink:href="#I"/><use xlink:href="#I" x="350"/><use xlink:href="#I" x="-350" y="350"/><use xlink:href="#I" y="350"/><use xlink:href="#I" x="350" y="350"/></pattern><use xlink:href="#W" fill="url(#f)"/><pattern id="g" width="350" height="350" patternUnits="userSpaceOnUse"><use xlink:href="#J" x="-350" y="-350"/><use xlink:href="#J" y="-350"/><use xlink:href="#J" x="350" y="-350"/><use xlink:href="#J" x="-350"/><use xlink:href="#J"/><use xlink:href="#J" x="350"/><use xlink:href="#J" x="-350" y="350"/><use xlink:href="#J" y="350"/><use xlink:href="#J" x="350" y="350"/></pattern><use xlink:href="#W" fill="url(#g)"/><pattern id="h" width="350" height="350" patternUnits="userSpaceOnUse"><use xlink:href="#K" x="-350" y="-350"/><use xlink:href="#K" y="-350"/><use xlink:href="#K" x="350" y="-350"/><use xlink:href="#K" x="-350"/><use xlink:href="#K"/><use xlink:href="#K" x="350"/><use xlink:href="#K" x="-350" y="350"/><use xlink:href="#K" y="350"/><use xlink:href="#K" x="350" y="350"/></pattern><use xlink:href="#W" fill="url(#h)"/><pattern id="i" width="350" height="350" patternUnits="userSpaceOnUse"><use xlink:href="#M" x="-350" y="-350"/><use xlink:href="#M" y="-350"/><use xlink:href="#M" x="350" y="-350"/><use xlink:href="#M" x="-350"/><use xlink:href="#M"/><use xlink:href="#M" x="350"/><use xlink:href="#M" x="-350" y="350"/><use xlink:href="#M" y="350"/><use xlink:href="#M" x="350" y="350"/></pattern><use xlink:href="#W" fill="url(#i)"/><pattern id="j" width="350" height="350" patternUnits="userSpaceOnUse"><use xlink:href="#L" x="-350" y="-350"/><use xlink:href="#L" y="-350"/><use xlink:href="#L" x="350" y="-350"/><use xlink:href="#L" x="-350"/><use xlink:href="#L"/><use xlink:href="#L" x="350"/><use xlink:href="#L" x="-350" y="350"/><use xlink:href="#L" y="350"/><use xlink:href="#L" x="350" y="350"/></pattern><use xlink:href="#W" fill="url(#j)"/><pattern id="k" width="350" height="350" patternUnits="userSpaceOnUse"><use xlink:href="#N" x="-350" y="-350"/><use xlink:href="#N" y="-350"/><use xlink:href="#N" x="350" y="-350"/><use xlink:href="#N" x="-350"/><use xlink:href="#N"/><use xlink:href="#N" x="350"/><use xlink:href="#N" x="-350" y="350"/><use xlink:href="#N" y="350"/><use xlink:href="#N" x="350" y="350"/></pattern><use xlink:href="#W" fill="url(#k)"/><pattern id="l" width="350" height="350" patternUnits="userSpaceOnUse"><use xlink:href="#O" x="-350" y="-350"/><use xlink:href="#O" y="-350"/><use xlink:href="#O" x="350" y="-350"/><use xlink:href="#O" x="-350"/><use xlink:href="#O"/><use xlink:href="#O" x="350"/><use xlink:href="#O" x="-350" y="350"/><use xlink:href="#O" y="350"/><use xlink:href="#O" x="350" y="350"/></pattern><use xlink:href="#W" fill="url(#l)"/><pattern id="m" width="350" height="350" patternUnits="userSpaceOnUse"><use xlink:href="#P" x="-350" y="-350"/><use xlink:href="#P" y="-350"/><use xlink:href="#P" x="350" y="-350"/><use xlink:href="#P" x="-350"/><use xlink:href="#P"/><use xlink:href="#P" x="350"/><use xlink:href="#P" x="-350" y="350"/><use xlink:href="#P" y="350"/><use xlink:href="#P" x="350" y="350"/></pattern><use xlink:href="#W" fill="url(#m)"/><pattern id="n" width="350" height="350" patternUnits="userSpaceOnUse"><use xlink:href="#Q" x="-350" y="-350"/><use xlink:href="#Q" y="-350"/><use xlink:href="#Q" x="350" y="-350"/><use xlink:href="#Q" x="-350"/><use xlink:href="#Q"/><use xlink:href="#Q" x="350"/><use xlink:href="#Q" x="-350" y="350"/><use xlink:href="#Q" y="350"/><use xlink:href="#Q" x="350" y="350"/></pattern><use xlink:href="#W" fill="url(#n)"/><pattern id="o" width="350" height="350" patternUnits="userSpaceOnUse"><use xlink:href="#R" x="-350" y="-350"/><use xlink:href="#R" y="-350"/><use xlink:href="#R" x="350" y="-350"/><use xlink:href="#R" x="-350"/><use xlink:href="#R"/><use xlink:href="#R" x="350"/><use xlink:href="#R" x="-350" y="350"/><use xlink:href="#R" y="350"/><use xlink:href="#R" x="350" y="350"/></pattern><use xlink:href="#W" fill="url(#o)"/><pattern id="p" width="350" height="350" patternUnits="userSpaceOnUse"><use xlink:href="#S" x="-350" y="-350"/><use xlink:href="#S" y="-350"/><use xlink:href="#S" x="350" y="-350"/><use xlink:href="#S" x="-350"/><use xlink:href="#S"/><use xlink:href="#S" x="350"/><use xlink:href="#S" x="-350" y="350"/><use xlink:href="#S" y="350"/><use xlink:href="#S" x="350" y="350"/></pattern><use xlink:href="#W" fill="url(#p)"/><pattern id="q" width="350" height="350" patternUnits="userSpaceOnUse"><use xlink:href="#T" x="-350" y="-350"/><use xlink:href="#T" y="-350"/><use xlink:href="#T" x="350" y="-350"/><use xlink:href="#T" x="-350"/><use xlink:href="#T"/><use xlink:href="#T" x="350"/><use xlink:href="#T" x="-350" y="350"/><use xlink:href="#T" y="350"/><use xlink:href="#T" x="350" y="350"/></pattern><use xlink:href="#W" fill="url(#q)"/><pattern id="r" width="350" height="350" patternUnits="userSpaceOnUse"><use xlink:href="#U" x="-350" y="-350"/><use xlink:href="#U" y="-350"/><use xlink:href="#U" x="350" y="-350"/><use xlink:href="#U" x="-350"/><use xlink:href="#U"/><use xlink:href="#U" x="350"/><use xlink:href="#U" x="-350" y="350"/><use xlink:href="#U" y="350"/><use xlink:href="#U" x="350" y="350"/></pattern><use xlink:href="#W" fill="url(#r)"/><pattern id="s" width="350" height="350" patternUnits="userSpaceOnUse"><use xlink:href="#V" x="-350" y="-350"/><use xlink:href="#V" y="-350"/><use xlink:href="#V" x="350" y="-350"/><use xlink:href="#V" x="-350"/><use xlink:href="#V"/><use xlink:href="#V" x="350"/><use xlink:href="#V" x="-350" y="350"/><use xlink:href="#V" y="350"/><use xlink:href="#V" x="350" y="350"/></pattern><use xlink:href="#W" fill="url(#s)"/></svg>